<?xml version="1.0" encoding="UTF-8" standalone="no"?>
<!-- Created with Inkscape (http://www.inkscape.org/) -->

<svg
   xmlns:dc="http://purl.org/dc/elements/1.1/"
   xmlns:cc="http://creativecommons.org/ns#"
   xmlns:rdf="http://www.w3.org/1999/02/22-rdf-syntax-ns#"
   xmlns:svg="http://www.w3.org/2000/svg"
   xmlns="http://www.w3.org/2000/svg"
   xmlns:sodipodi="http://sodipodi.sourceforge.net/DTD/sodipodi-0.dtd"
   xmlns:inkscape="http://www.inkscape.org/namespaces/inkscape"
   width="168mm"
   height="90mm"
   viewBox="0 0 168 90"
   version="1.1"
   id="svg1827"
   inkscape:version="0.92.5 (2060ec1f9f, 2020-04-08)"
   sodipodi:docname="cat.svg">
  <defs
     id="defs1821" />
  <sodipodi:namedview
     id="base"
     pagecolor="#ffffff"
     bordercolor="#666666"
     borderopacity="1.0"
     inkscape:pageopacity="0.0"
     inkscape:pageshadow="2"
     inkscape:zoom="0.7"
     inkscape:cx="-8.5299509"
     inkscape:cy="350.28257"
     inkscape:document-units="mm"
     inkscape:current-layer="layer1"
     showgrid="false"
     inkscape:window-width="1920"
     inkscape:window-height="1043"
     inkscape:window-x="1366"
     inkscape:window-y="0"
     inkscape:window-maximized="1" />
  <metadata
     id="metadata1824">
    <rdf:RDF>
      <cc:Work
         rdf:about="">
        <dc:format>image/svg+xml</dc:format>
        <dc:type
           rdf:resource="http://purl.org/dc/dcmitype/StillImage" />
        <dc:title></dc:title>
      </cc:Work>
    </rdf:RDF>
  </metadata>
  <g
     inkscape:label="Camada 1"
     inkscape:groupmode="layer"
     id="layer1"
     transform="translate(0,-207)">
    <path
       style="fill:#162d50;fill-opacity:1;stroke:none;stroke-width:0.26458332px;stroke-linecap:butt;stroke-linejoin:miter;stroke-opacity:1"
       d="M 44.129747,264.55578 C 36.332646,254.45272 35.077976,235.42816 30.552096,220.86435 l 16.81994,-1.60639 53.578124,1.60639 4.12677,12.44671 -36.160254,13.82265 c 0,0 -7.37054,6.33109 -8.22098,6.23661 -0.85045,-0.0945 -12.17725,8.05273 -12.17725,8.05273 z"
       id="path1714"
       inkscape:connector-curvature="0"
       sodipodi:nodetypes="ccccccccc" />
    <path
       style="fill:#0b1728;fill-opacity:1;stroke:none;stroke-width:0.26458332px;stroke-linecap:butt;stroke-linejoin:miter;stroke-opacity:1"
       d="m 30.552096,220.86435 16.725441,1.13393 14.740279,53.99359 -20.65325,-11.74743 z"
       id="path1717"
       inkscape:connector-curvature="0"
       sodipodi:nodetypes="ccccc" />
    <rect
       style="fill:#000000;fill-opacity:0;stroke:none;stroke-width:0.66600001;stroke-linejoin:round;stroke-miterlimit:4;stroke-dasharray:none;stroke-opacity:0"
       id="rect1719"
       width="1.9371281"
       height="1.0866816"
       x="37.639149"
       y="232.01465" />
    <rect
       style="fill:#dbdbe3;fill-opacity:0;stroke:none;stroke-width:0.66600001;stroke-linejoin:round;stroke-miterlimit:4;stroke-dasharray:none;stroke-opacity:0"
       id="rect1721"
       width="4.3467264"
       height="2.0316219"
       x="36.457981"
       y="229.32158" />
    <path
       style="fill:#dbdbe3;fill-opacity:1;stroke:#dbdbe3;stroke-width:0.065;stroke-linecap:butt;stroke-linejoin:round;stroke-miterlimit:4;stroke-dasharray:none;stroke-opacity:1"
       d="m 52.919475,234.41713 0.25005,1.61886 8.19273,-0.44435 2.831042,-0.15354 -0.274931,-1.51741 z"
       id="path1731"
       inkscape:connector-curvature="0"
       sodipodi:nodetypes="cccccc" />
    <path
       style="fill:#f48b9a;fill-opacity:1;stroke:#f48b9a;stroke-width:0.0421134;stroke-linecap:butt;stroke-linejoin:round;stroke-miterlimit:4;stroke-dasharray:none;stroke-opacity:1"
       d="m 64.928646,233.74618 0.25881,1.59176 c 1.53212,-0.14762 3.300481,-0.22438 4.832601,-0.37203 l -0.249081,-1.53688 z"
       id="path1731-7"
       inkscape:connector-curvature="0"
       sodipodi:nodetypes="ccccc" />
    <path
       style="fill:#31d6ba;fill-opacity:1;stroke:#31d6ba;stroke-width:0.065;stroke-linecap:butt;stroke-linejoin:round;stroke-miterlimit:4;stroke-dasharray:none;stroke-opacity:1"
       d="m 70.399036,233.33683 0.250049,1.61886 8.192731,-0.44435 2.831041,-0.15354 -0.274931,-1.51741 z"
       id="path1731-5"
       inkscape:connector-curvature="0"
       sodipodi:nodetypes="cccccc" />
    <path
       sodipodi:nodetypes="cccccc"
       inkscape:connector-curvature="0"
       id="path1754"
       d="m 87.170497,232.24139 0.25005,1.61886 8.19273,-0.44435 2.831039,-0.15354 -0.274929,-1.51741 z"
       style="fill:#1ebcbf;fill-opacity:1;stroke:#1ebcbf;stroke-width:0.065;stroke-linecap:butt;stroke-linejoin:round;stroke-miterlimit:4;stroke-dasharray:none;stroke-opacity:1" />
    <path
       style="fill:#fde992;fill-opacity:1;stroke:#fde992;stroke-width:0.04091074;stroke-linecap:butt;stroke-linejoin:round;stroke-miterlimit:4;stroke-dasharray:none;stroke-opacity:1"
       d="m 82.126337,232.76119 0.281509,1.52979 c 1.171811,-0.0851 4.21627,-0.39294 4.216281,-0.39294 l -0.27835,-1.37984 z"
       id="path1764"
       inkscape:connector-curvature="0"
       sodipodi:nodetypes="ccccc" />
    <path
       sodipodi:nodetypes="ccccc"
       inkscape:connector-curvature="0"
       id="path1766"
       d="m 98.972107,231.64143 0.25881,1.59176 c 1.532123,-0.14762 3.300483,-0.22438 4.832603,-0.37203 l -0.24908,-1.53688 z"
       style="fill:#d5586a;fill-opacity:1;stroke:#d5586a;stroke-width:0.0421134;stroke-linecap:butt;stroke-linejoin:round;stroke-miterlimit:4;stroke-dasharray:none;stroke-opacity:1" />
    <path
       sodipodi:nodetypes="cccccc"
       inkscape:connector-curvature="0"
       id="path1768"
       d="m 53.994856,238.6285 0.25005,1.61886 8.19273,-0.44435 2.831042,-0.15354 -0.274932,-1.51741 z"
       style="fill:#31d6ba;fill-opacity:1;stroke:#31d6ba;stroke-width:0.065;stroke-linecap:butt;stroke-linejoin:round;stroke-miterlimit:4;stroke-dasharray:none;stroke-opacity:1" />
    <path
       sodipodi:nodetypes="ccccc"
       inkscape:connector-curvature="0"
       id="path1770"
       d="m 71.078237,237.62875 0.25881,1.59176 c 1.53212,-0.14762 3.300479,-0.22438 4.832599,-0.37203 l -0.249079,-1.53688 z"
       style="fill:#f48b9a;fill-opacity:1;stroke:#f48b9a;stroke-width:0.0421134;stroke-linecap:butt;stroke-linejoin:round;stroke-miterlimit:4;stroke-dasharray:none;stroke-opacity:1" />
    <path
       sodipodi:nodetypes="ccccc"
       inkscape:connector-curvature="0"
       id="path1772"
       d="m 66.251237,238.05289 0.281509,1.52979 c 1.17181,-0.0851 4.21627,-0.39294 4.216281,-0.39294 l -0.27835,-1.37984 z"
       style="fill:#fde992;fill-opacity:1;stroke:#fde992;stroke-width:0.04091074;stroke-linecap:butt;stroke-linejoin:round;stroke-miterlimit:4;stroke-dasharray:none;stroke-opacity:1" />
    <path
       sodipodi:nodetypes="cccccc"
       inkscape:connector-curvature="0"
       id="path1774"
       d="m 76.547077,237.12459 0.278669,1.61418 8.183581,-0.58933 2.82788,-0.20364 -0.30176,-1.51231 z"
       style="fill:#dbdbe3;fill-opacity:1;stroke:#dbdbe3;stroke-width:0.065;stroke-linecap:butt;stroke-linejoin:round;stroke-miterlimit:4;stroke-dasharray:none;stroke-opacity:1" />
    <path
       style="fill:#d5586a;fill-opacity:1;stroke:#d5586a;stroke-width:0.0421134;stroke-linecap:butt;stroke-linejoin:round;stroke-miterlimit:4;stroke-dasharray:none;stroke-opacity:1"
       d="m 54.937876,242.98072 0.25881,1.59176 c 1.53212,-0.14762 3.300481,-0.22438 4.832601,-0.37202 l -0.249081,-1.53689 z"
       id="path1776"
       inkscape:connector-curvature="0"
       sodipodi:nodetypes="ccccc" />
    <path
       sodipodi:nodetypes="cccccc"
       inkscape:connector-curvature="0"
       id="path1778"
       d="m 60.837576,242.58159 0.25005,1.61887 8.19273,-0.44436 2.831039,-0.15354 -0.274928,-1.51741 z"
       style="fill:#3468b8;fill-opacity:1;stroke:#3468b8;stroke-width:0.065;stroke-linecap:butt;stroke-linejoin:round;stroke-miterlimit:4;stroke-dasharray:none;stroke-opacity:1" />
    <path
       sodipodi:nodetypes="ccccc"
       inkscape:connector-curvature="0"
       id="path1788"
       d="m 72.545256,242.00702 0.281512,1.52979 c 1.171808,-0.0851 4.216267,-0.39294 4.216278,-0.39294 l -0.27835,-1.37984 z"
       style="fill:#fde992;fill-opacity:1;stroke:#fde992;stroke-width:0.04091074;stroke-linecap:butt;stroke-linejoin:round;stroke-miterlimit:4;stroke-dasharray:none;stroke-opacity:1" />
    <path
       style="fill:#f48b9a;fill-opacity:1;stroke:none;stroke-width:0.26458332px;stroke-linecap:butt;stroke-linejoin:miter;stroke-opacity:1"
       d="m 41.908946,278.41962 c -5.874139,-18.03748 -10.68785,-38.6172 -15.52669,-57.5983 -0.57614,-0.35187 -0.67452,-1.02224 1.39604,-3.13857 l 73.632764,0.13363 4.00904,3.47451 4.40994,13.0962 -4.75311,-1.07603 -3.49315,-10.32819 -11.953494,-1.13393 c -18.599579,0.23623 -36.905729,-0.60345 -55.798739,0.7087 -0.861091,0.027 -0.9951,0.94639 -1.417412,1.51191 l 6.189361,21.63914 7.79576,30.89955 z"
       id="path849"
       inkscape:connector-curvature="0"
       sodipodi:nodetypes="cccccccccccccc" />
    <path
       style="fill:#d5586a;fill-opacity:1;stroke:none;stroke-width:0.22225605px;stroke-linecap:butt;stroke-linejoin:miter;stroke-opacity:1"
       d="m 44.088837,281.19532 c 18.06542,0.0459 37.934919,-1.97959 54.196269,-0.12965 l 8.734894,-0.48868 14.76712,0.62366 c 0.87514,0.15369 1.12061,1.63381 1.4358,2.96712 -0.78692,2.0675 -2.20678,2.89422 -3.93405,3.11831 l -74.872463,0.42423 -1.60792,-4.01502 c 0.331888,-0.90325 0.23976,-2.11898 1.28035,-2.49997 z"
       id="path851"
       inkscape:connector-curvature="0"
       sodipodi:nodetypes="ccccccccc" />
    <path
       style="fill:#d5586a;fill-opacity:1;stroke:none;stroke-width:0.26458332px;stroke-linecap:butt;stroke-linejoin:miter;stroke-opacity:1"
       d="m 121.61114,286.94132 29.75317,0.23445 c 1.53909,-0.16488 2.05191,-0.39873 3.28353,-1.03881 1.67006,-1.24882 1.82398,-3.86995 0.0857,-4.93626 -10.98214,-0.0589 -21.95626,-1.10428 -32.9384,-0.13639 l 1.42778,3.10351 z"
       id="path1694"
       inkscape:connector-curvature="0"
       sodipodi:nodetypes="ccccccc" />
    <path
       style="fill:#9b857f;fill-opacity:1;stroke-width:0.26458338"
       d="m 41.862855,278.89458 c -0.38627,-0.81314 -1.24619,-5.18163 -2.298848,-8.81967 1.850639,-2.68168 70.063963,-37.15451 70.063963,-37.15451 0.10777,0.12037 1.4905,0.38002 3.07272,0.577 6.91221,0.86056 13.13943,2.84831 18.64928,5.95292 3.42391,1.92925 5.80865,3.74664 8.54166,6.5095 4.74379,4.79558 7.17286,9.30683 8.24733,15.31673 0.4561,2.55117 0.47711,4.49182 0.082,7.57249 -0.38029,2.96535 -0.22596,3.70114 1.24548,5.93774 1.07082,1.62765 1.19574,1.9705 1.1026,3.02623 -0.0578,0.65485 -0.19842,1.399 -0.31257,1.65365 0,0 -0.35847,1.62157 -12.30912,1.52135 -8.8837,0 -16.1522,0.0344 -16.1522,0.0763 -8.49736,-2.20019 -78.464373,2.23528 -79.932295,-2.16974 z m 39.904742,2.1569 c 273.082593,103.54158 136.541303,51.77079 0,0 z m 16.02327,-1.29695 11.536673,-0.17515 0.28342,-1.21391 c 0.36662,-1.57034 0.0545,-2.73867 -0.79931,-2.99221 -2.54996,-0.75719 -15.481473,-3.77359 -18.078544,-4.217 -5.673,-0.96859 -9.640279,-0.32189 -11.993869,1.95508 -1.71703,1.66111 -2.10316,5.3994 -0.67011,6.48761 0.511929,0.38875 3.04669,0.40874 19.72174,0.15558 z m -18.962161,-2.62462 c -0.42857,-1.11681 0.0516,-2.55517 0.67913,-2.03436 0.297172,0.24663 0.39167,1.06829 0.251671,2.1883 -0.0527,0.42194 -0.754351,0.30591 -0.930801,-0.15394 z m -36.143941,-0.13678 c 0,-0.1599 0.347001,-0.61486 0.771112,-1.01105 l 0.77111,-0.72032 -0.530331,-0.83761 c -0.456639,-0.72121 -0.60524,-0.79751 -1.06934,-0.54913 -0.72867,0.38997 -1.140939,-0.23119 -0.571249,-0.8607 0.361498,-0.39946 0.353748,-0.58342 -0.0755,-1.79197 -2.776379,-4.7999 -0.30979,4.9071 0.49321,6.0615 0.116041,0 0.210981,-0.13083 0.210981,-0.29072 z m 75.670825,-1.81033 c 0,-0.13694 -0.13385,-0.3317 -0.29746,-0.43282 -0.48525,-0.29989 -1.79775,-3.42643 -2.24288,-5.34278 -0.22748,-0.97935 -0.45931,-2.91174 -0.51519,-4.29419 -0.0559,-1.38244 -0.1056,-2.59243 -0.11053,-2.68885 -0.0136,-0.26708 -3.3067,-1.44916 -5.82976,-2.09264 -2.83912,-0.72407 -6.6055,-0.9483 -8.79086,-0.52334 -3.233103,0.62869 -6.726524,2.84404 -8.112202,5.14437 -0.2848,0.47279 -0.553482,1.55247 -0.632532,2.54171 -0.0756,0.94589 -0.22185,1.92815 -0.325048,2.18282 -0.136761,0.33746 -0.0604,0.46302 0.281649,0.46302 0.258109,0 4.116361,0.89194 8.573893,1.9821 7.28153,1.78082 12.75637,2.83812 16.14885,3.11866 0.65483,0.0541 1.33945,0.11925 1.52134,0.14468 0.18192,0.0254 0.33073,-0.0658 0.33073,-0.20274 z m -77.258325,-7.06293 c 0,-0.35238 0.35719,-1.34828 0.79375,-2.21311 0.43656,-0.86482 0.79375,-1.68515 0.79375,-1.82295 0,-0.13782 -0.773898,-0.50811 -1.719789,-0.82287 -0.992629,-0.33033 -1.719789,-0.7244 -1.719789,-0.932 0,-0.60307 0.332039,-0.62021 1.98437,-0.10244 2.070438,0.64881 2.21208,0.63671 2.53651,-0.2166 0.15096,-0.39704 0.568679,-1.30767 0.92829,-2.02363 l 0.653828,-1.30173 -0.673518,-0.97187 c -0.37043,-0.53455 -0.98466,-2.154 -1.364951,-3.59879 -1.69567,-6.44209 -0.399169,-11.62931 2.604281,-10.41965 0.94457,0.38043 5.516499,4.87287 6.85284,6.73369 l 0.823968,1.14735 1.09542,-0.42236 c 0.743752,-0.28676 2.008532,-0.42835 3.939691,-0.44102 1.564349,-0.0103 2.844271,-0.0977 2.844271,-0.19421 0,-0.0965 0.7352,-1.16809 1.633778,-2.38125 1.983372,-2.6777 4.468651,-5.17621 5.375093,-5.40371 0.854538,-0.21447 1.836539,0.4153 2.411978,1.54684 0.239821,0.47158 0.470742,0.89733 0.51316,0.94613 0.0424,0.0488 0.991391,-0.54651 2.108821,-1.32291 4.361098,-3.03014 5.143209,-3.50111 8.74635,-5.26686 5.74757,-2.81663 17.177139,-5.44291 18.359363,-5.27601 1.37707,-0.15731 2.51933,-0.31026 2.53837,-0.33989 l 1.31927,-0.12205 c 1.85626,-0.25122 3.46341,0.0215 5.1516,0.0224 -11.245424,6.60235 -50.542753,26.09977 -68.683235,36.26577 0.101262,0 0.0514,-0.21489 0.0514,-0.21489 0,0 0.0937,-0.4743 0.101161,-0.8514 z m -6.2836,-3.93287 c 304.385235,114.78457 152.192605,57.39228 0,0 z"
       id="path1696"
       inkscape:connector-curvature="0"
       sodipodi:nodetypes="cccssssccccccccsscccsccscccccsccccccccscccccccccssccsccscssccccccccccsscccccscccccccccc" />
    <ellipse
       style="fill:#31d6ba;fill-opacity:1;stroke:#31d6ba;stroke-width:0.06108801;stroke-linejoin:round;stroke-miterlimit:4;stroke-dasharray:none;stroke-opacity:1"
       id="path1790"
       cx="3.8172672"
       cy="228.7135"
       rx="0.79107112"
       ry="0.85240239"
       transform="rotate(-7.9567303)" />
    <ellipse
       transform="rotate(-7.9567303)"
       ry="0.85240239"
       rx="0.79107112"
       cy="228.95172"
       cx="6.3663416"
       id="ellipse1798"
       style="fill:#31d6ba;fill-opacity:1;stroke:#31d6ba;stroke-width:0.06108801;stroke-linejoin:round;stroke-miterlimit:4;stroke-dasharray:none;stroke-opacity:1" />
    <ellipse
       style="fill:#31d6ba;fill-opacity:1;stroke:#31d6ba;stroke-width:0.06108801;stroke-linejoin:round;stroke-miterlimit:4;stroke-dasharray:none;stroke-opacity:1"
       id="ellipse1800"
       cx="8.9990911"
       cy="229.30283"
       rx="0.79107112"
       ry="0.85240239"
       transform="rotate(-7.9567303)" />
    <path
       style="fill:#333333;stroke-width:0.26458338"
       d="m 45.158246,287.70958 c -1.349999,-0.35069 -2.1942,-1.03904 -2.735001,-2.23005 -0.769699,-1.6953 -0.607499,-3.82508 0.365501,-4.79804 0.1909,-0.19089 0.494599,-1.00616 0.674799,-1.81173 0.566502,-2.53115 1.788202,-2.79642 1.479002,-0.32112 -0.174501,1.39672 -0.174,1.39804 0.5133,1.26666 0.5559,-0.10627 0.687998,-0.28151 0.687998,-0.91283 0,-0.65891 0.093,-0.76806 0.595302,-0.69675 0.426199,0.0605 0.619099,0.29118 0.678998,0.81214 0.064,0.55474 0.226002,0.72761 0.682501,0.72761 0.4427,0 0.593201,-0.14818 0.577701,-0.56853 -0.01201,-0.31269 0.113999,-0.61567 0.278998,-0.67327 0.385501,-0.13458 1.207601,0.6784 1.009701,0.99854 -0.09,0.14623 3.655001,0.24326 9.3903,0.24326 7.4553,0 9.540999,-0.0723 9.5421,-0.33072 0,-1.00073 0.681601,-2.45217 1.7012,-3.64666 2.119,-2.48254 3.8921,-6.62872 4.266001,-9.97572 l 0.184298,-1.65 -1.5904,-1.70012 c -0.874699,-0.93509 -1.918599,-2.37099 -2.319798,-3.19092 -0.705201,-1.44132 -0.7215,-1.57154 -0.4939,-3.92592 0.382,-3.94974 0.266999,-8.88977 -0.2326,-9.99684 -0.787101,-1.74433 -1.0711,-1.785 -2.706701,-0.38761 -0.8005,0.68383 -1.457,1.32343 -1.458899,1.42132 0,0.0979 -0.595702,0.83282 -1.319401,1.63319 -0.723799,0.80036 -1.3175,1.55244 -1.3194,1.6713 0,0.25356 -1.3344,2.0765 -1.7218,2.35954 -0.4181,0.30542 -0.663001,0.23652 -0.663001,-0.1865 0,-1.19257 5.919002,-8.35548 7.355901,-8.90178 0.8103,-0.3081 2.0359,0.3281 2.551001,1.3243 1.084699,2.09761 1.4732,6.71773 0.9061,10.77611 -0.287102,2.05491 -0.271502,2.21068 0.358799,3.58751 0.3624,0.79163 1.3422,2.13915 2.177301,2.99448 0.834999,0.85534 1.618499,1.81887 1.741099,2.14121 0.233601,0.61445 -5.29e-4,2.76385 -0.544999,5.00362 -0.506201,2.08218 -1.936301,4.84446 -3.6809,7.10975 -1.234701,1.60326 -1.603901,2.28844 -1.603901,2.97656 0,0.79873 0.078,0.89391 0.727601,0.89407 0.710899,1.5e-4 0.725499,-0.0309 0.634199,-1.34857 -0.100701,-1.4538 0.145301,-1.9424 0.842901,-1.67467 0.294199,0.11286 0.441198,0.47423 0.441198,1.0844 0,1.27096 0.418402,1.93867 1.214901,1.93867 0.636601,0 0.648301,-0.0269 0.255302,-0.58803 -0.226603,-0.32343 -0.411901,-1.03781 -0.411901,-1.5875 0,-0.87752 0.077,-0.99947 0.6325,-0.99947 0.635799,0 0.839099,0.50821 1.031899,2.57968 0.043,0.46161 0.2209,0.59532 0.7923,0.59532 0.6556,0 0.705601,-0.0585 0.4529,-0.53063 -0.156199,-0.29185 -0.353399,-1.27441 -0.438301,-2.18346 -0.128098,-1.3717 -0.053,-1.86741 0.438603,-2.91434 0.758597,-1.61379 2.556798,-3.19409 4.459499,-3.91904 1.756299,-0.66919 5.4908,-0.94293 7.777999,-0.57017 l 1.521301,0.24795 v -2.15332 c 0,-3.53627 -0.816999,-5.88903 -3.3093,-9.52936 -1.112301,-1.62477 -1.357702,-2.52472 -0.6883,-2.52472 0.9814,0 4.433001,5.75759 5.058399,8.43793 0.3199,1.37083 0.245099,4.66924 -0.127198,5.61395 -0.136801,0.34707 0.140599,0.48468 1.499798,0.7439 0.917199,0.17492 4.168,0.95404 7.223904,1.73137 5.87919,1.49549 9.8374,2.32945 13.0969,2.75941 5.38099,0.70983 5.4825,0.69796 4.547,-0.5316 -1.38361,-1.81872 -2.45281,-5.76728 -2.49051,-9.19798 -0.015,-1.40003 -0.14179,-2.69435 -0.28089,-2.87625 -0.16301,-0.21314 -0.15801,-0.33073 0.014,-0.33073 0.1468,0 0.35,-0.56554 0.4514,-1.25677 0.4396,-2.99421 2.5323,-6.94478 5.1111,-9.64839 1.7138,-1.7967 2.7114,-2.45528 4.0911,-2.70067 1.3854,-0.24642 1.3164,0.3633 -0.1323,1.16977 -1.9005,1.05796 -2.5716,1.65115 -4.0417,3.57252 -2.7762,3.62866 -3.951,7.10501 -3.934,11.64167 0.011,3.04782 0.7308,6.46164 1.921,9.11642 0.2907,0.6484 0.4701,1.27347 0.3987,1.38906 -0.1856,0.30019 11.2641,0.25981 17.223,-0.0607 6.1798,-0.33245 8.1165,-0.63119 9.7086,-1.49772 1.416,-0.77073 1.8432,-0.74156 1.525,0.10414 -0.3094,0.82274 -2.4283,1.81268 -4.6105,2.15406 -7.3352,1.14753 -25.6574,1.08244 -32.0339,-0.1138 l -0.8471,-0.15893 0.092,1.28063 0.092,1.28063 -0.2382,-1.29734 c -0.2686,-1.4637 -0.4335,-1.6202 -1.9605,-1.86096 -0.5984,-0.0944 -3.886,-0.87068 -7.3057,-1.72513 -9.269195,-2.31603 -10.276096,-2.49463 -14.155195,-2.51069 -2.8,-0.0116 -3.702201,0.0831 -4.851802,0.50941 -1.620999,0.60102 -3.3078,1.94282 -3.9126,3.11236 -0.594598,1.14976 -0.616098,3.87108 -0.038,4.75718 l 0.458401,0.70215 28.645796,-0.14995 c 31.5252,-0.16503 46.8039,0.11079 47.9561,0.86573 0.6917,0.45321 1.4595,2.13337 1.4595,3.19375 0,0.74973 -1.4253,2.29997 -2.3329,2.53729 -0.3392,0.0887 -0.1167,-0.24991 0.6423,-0.97711 1.3426,-1.28645 1.4615,-2.00289 0.5556,-3.34725 l -0.6058,-0.89904 -16.4692,-0.0682 -16.4692,-0.0682 0.5894,0.79728 c 0.7328,0.99116 0.8046,3.04927 0.1417,4.061 -0.2462,0.37585 -0.4477,0.74989 -0.4477,0.83121 0,0.0813 6.9056,0.11527 15.3459,0.0754 8.4402,-0.0398 15.3458,-0.0563 15.3458,-0.0367 0,0.0196 -0.5749,0.22371 -1.2775,0.45352 -1.1407,0.37309 -6.857,0.43215 -53.379697,0.55147 -28.6562,0.0735 -52.4862,0.0339 -52.955502,-0.088 z m 75.635294,-1.39518 c 0.89031,-0.58338 1.38901,-1.83438 1.17851,-2.95633 -0.1974,-1.05205 -0.73791,-1.58554 -2.0095,-1.98328 -1.29711,-0.40571 -74.975905,-0.4886 -75.987304,-0.0855 -0.878099,0.34998 -1.216099,1.74008 -0.778401,3.20111 0.341601,1.14018 0.9829,1.80344 2.058601,2.12907 0.415901,0.12587 17.430099,0.20829 37.8094,0.18315 34.142704,-0.0421 37.106494,-0.0805 37.728694,-0.48822 z m -60.362195,-0.39347 c -2.366798,-0.0999 -6.0785,-0.65841 -6.253099,-0.94094 -0.079,-0.12803 -0.067,-0.4321 0.02601,-0.67572 0.1222,-0.3186 0.2251,-0.35364 0.366498,-0.12479 0.262501,0.42463 8.026202,0.91051 12.871802,0.80559 3.080599,-0.0667 3.704198,-0.14704 3.704198,-0.4771 0,-0.54902 -2.2499,-0.72042 -9.987999,-0.76088 -5.9925,-0.0313 -7.4412,-0.22831 -5.5563,-0.75543 0.910801,-0.25471 14.4922,-0.24488 15.470499,0.0112 1.421601,0.37208 1.638401,2.18759 0.332301,2.78267 -0.629801,0.28695 -5.855398,0.35143 -10.974099,0.1354 z m 20.108302,-0.48922 c -0.754301,-0.27369 -0.908801,-0.4519 -0.8328,-0.96062 0.259699,-1.74078 0.995699,-2.08665 4.0328,-1.8952 2.517699,0.15873 2.885401,0.40777 2.885401,1.95434 0,0.64906 -0.1412,1.03364 -0.418502,1.14005 -0.7272,0.27905 -4.701598,0.11173 -5.666899,-0.23857 z m 5.027099,-1.16079 c 0,-0.43593 -0.2833,-0.52671 -2.163199,-0.69311 -1.929201,-0.17076 -2.201899,-0.1386 -2.5206,0.29725 -0.4947,0.67648 0.041,0.85539 2.6333,0.87889 1.8431,0.0167 2.050499,-0.0321 2.050499,-0.48303 z m -40.308001,0.81153 c -0.555799,-0.61417 -0.5603,-1.47253 -0.01101,-2.02219 0.3259,-0.32589 0.843399,-0.40878 2.182799,-0.34963 1.7155,0.0758 1.757601,0.0949 1.8425,0.83712 0.048,0.41777 0.01601,1.04285 -0.071,1.38906 -0.1456,0.57994 -0.289798,0.6295 -1.831798,0.6295 -1.285401,0 -1.775301,-0.11225 -2.111602,-0.48386 z m 53.325501,0.16636 c -0.950799,-0.95075 0.1147,-2.68207 1.27,-2.06375 0.968704,0.51841 0.554704,2.38125 -0.529198,2.38125 -0.232802,0 -0.566201,-0.14289 -0.740802,-0.3175 z m 1.005401,-0.85751 c 0,-0.0642 -0.1191,-0.19027 -0.264599,-0.28021 -0.145503,-0.0899 -0.264602,-0.0374 -0.264602,0.11669 0,0.1541 0.119099,0.28019 0.264602,0.28019 0.145499,0 0.264599,-0.0525 0.264599,-0.11667 z m 10.339593,-5.59392 c 0.013,-0.30823 0.075,-0.37091 0.15991,-0.15986 0.076,0.191 0.067,0.4192 -0.021,0.50713 -0.088,0.0879 -0.1505,-0.0684 -0.139,-0.34727 z m -68.020294,-0.37776 c -0.189799,-0.35465 -1.104699,-3.26726 -2.033101,-6.4725 -3.164898,-10.92739 -8.511299,-29.62766 -10.138299,-35.46103 -0.8928,-3.20146 -2.0287,-7.07099 -2.524,-8.59896 -1.6597,-5.1194 -2.0756,-7.89784 -1.4033,-9.3734 0.1908,-0.41874 0.7436,-0.83496 1.485,-1.1181 1.0866,-0.41498 1.7973,-0.4257 8.890299,-0.13404 4.4122,0.18143 16.875001,0.31518 29.1406,0.31273 17.724702,-0.004 22.345502,-0.0808 26.717903,-0.44693 8.042502,-0.67341 10.862102,-0.0388 13.148402,2.95928 1.2372,1.62232 1.83489,3.15874 3.39499,8.7265 1.0389,3.70752 1.191,4.5139 0.8657,4.58888 -0.2171,0.05 -0.5116,-0.0259 -0.65439,-0.16872 -0.14281,-0.14282 -0.8339,-2.26734 -1.5358,-4.72117 -1.5406,-5.38609 -2.0456,-6.60161 -3.3373,-8.03127 -1.8381,-2.03461 -2.5544,-2.25149 -7.246404,-2.19406 -25.177199,0.30819 -53.0617,0.3442 -59.8205,0.0772 -8.1386,-0.32145 -9.7916,-0.20988 -10.1346,0.68402 -0.443,1.15453 0.053,3.86633 1.5701,8.57445 0.4922,1.52796 1.9587,6.64765 3.2589,11.37708 2.542299,9.2471 8.4914,29.96609 8.6512,30.12976 0.053,0.0547 1.322401,-0.39225 2.819901,-0.99335 3.017199,-1.21112 4.442499,-1.40246 4.442499,-0.59637 0,0.38925 -0.576,0.69387 -2.712,1.43443 -1.491599,0.51713 -3.039401,1.0114 -3.439599,1.09835 -0.400201,0.087 -0.727602,0.25692 -0.727602,0.3777 0,0.12079 0.474001,1.84061 1.053402,3.82184 0.746098,2.55174 0.989099,3.77577 0.833199,4.19732 l -0.220199,0.59509 z m 37.156601,-1.43318 c -0.2043,-0.81404 0.081,-1.73888 0.535901,-1.73888 0.191899,0 0.408098,0.38695 0.480298,0.85989 0.2066,1.35288 -0.700299,2.13741 -1.016199,0.87899 z m -36.873301,-3.17342 c -0.418701,-0.50446 3.9747,-4.72181 4.796901,-4.6047 1.0927,0.15565 0.739198,0.85538 -1.313201,2.59965 -2.471399,2.10034 -3.102999,2.46383 -3.4837,2.00505 z m 23.6547,-2.32216 c -1.1596,-0.43192 -2.703701,-0.86468 -3.4313,-0.9617 -1.105699,-0.14744 -1.336799,-0.27413 -1.4074,-0.77171 -0.077,-0.54415 0.02101,-0.59531 1.146201,-0.59531 1.2378,0 4.775398,1.05419 5.8836,1.75332 0.656199,0.41393 0.784098,1.02806 0.2563,1.23059 -0.1865,0.0716 -1.287899,-0.22326 -2.447401,-0.65519 z m -13.4571,-0.63058 c -0.088,-0.23018 -0.1606,-0.85935 -0.1606,-1.39815 0,-0.82791 -0.133199,-1.05587 -0.859901,-1.47174 -2.022898,-1.15764 -2.491698,-2.05116 -1.5318,-2.91984 0.383,-0.34661 0.746501,-0.42376 1.389102,-0.29481 1.244399,0.24969 1.5278,0.23427 2.8154,-0.15326 1.0967,-0.33006 1.175499,-0.31669 1.6598,0.28136 0.3264,0.40309 0.448199,0.82781 0.340199,1.18632 -0.216901,0.72045 -1.3799,1.96158 -2.032,2.16853 -0.419,0.13301 -0.477399,0.31948 -0.336101,1.07295 0.094,0.50158 0.097,1.14488 0.01,1.42956 -0.197001,0.6208 -1.0652,0.68744 -1.2909,0.0991 z m 8.959799,-4.35648 c -0.4382,-0.70897 1.070502,-1.09998 5.564003,-1.44198 2.518198,-0.19167 3.836397,0.0744 3.836397,0.77448 0,0.49897 -0.7781,0.61416 -5.467998,0.80953 -2.647802,0.11031 -3.8022,0.0686 -3.932402,-0.14203 z m -17.219898,-1.94802 c -1.035,-0.48574 -2.493502,-1.08635 -3.241201,-1.33466 -1.221899,-0.40586 -1.6354,-0.83847 -1.209001,-1.26488 0.083,-0.0827 1.035201,0.12267 2.116702,0.45634 1.0815,0.33369 1.966298,0.56431 1.966298,0.51252 0,-0.19318 2.531301,0.99921 2.976602,1.40216 0.254598,0.23044 0.463,0.57911 0.463,0.77484 0,0.58277 -1.073301,0.39193 -3.0724,-0.54632 z m 97.562503,0.66415 c -0.49411,-0.313 -0.028,-1.71332 0.6115,-1.83729 0.7459,-0.1446 0.9682,0.29702 0.6174,1.22647 -0.3301,0.87436 -0.60061,1.00882 -1.2289,0.61082 z M 20.472446,264.18276 c -0.363,-0.29394 -0.5478,-0.65823 -0.4557,-0.89831 0.085,-0.22212 1.7407,-1.69918 3.6786,-3.28236 4.4726,-3.65371 5.9519,-5.06437 5.6315,-5.37034 -0.2553,-0.24371 -3.6725,-7.9e-4 -6.5987,0.46895 -1.604,0.25754 -2.525,0.007 -1.7455,-0.47476 0.9851,-0.60878 7.704,-1.42426 8.6794,-1.05342 0.4686,0.17816 0.6068,0.43575 0.6068,1.13122 0,0.7692 -0.2611,1.14682 -1.7898,2.5889 -0.9843,0.92859 -3.0363,2.69791 -4.56,3.93181 -2.9415,2.38212 -2.9797,2.53757 -0.5689,2.31889 1.4744,-0.13374 10.753401,0.24893 11.457899,0.47254 1.402001,0.44496 -0.444098,0.61966 -6.756999,0.63948 -6.4296,0.0202 -7.0152,-0.0163 -7.5786,-0.4726 z m 39.518601,0.0668 c -0.216202,-0.56326 0,-0.72741 2.253898,-1.67551 2.034201,-0.85743 3.0593,-1.01915 3.361402,-0.53027 0.286099,0.46284 -0.3887,0.89191 -2.8071,1.78501 -2.6221,0.96832 -2.599401,0.96492 -2.8082,0.42077 z m 25.904,-0.46097 c -0.1318,-0.17325 -0.3901,-0.69477 -0.574001,-1.15892 -0.619598,-1.56356 0.3874,-1.96211 1.2856,-0.50882 0.5656,0.91519 0.522901,1.60096 -0.114998,1.84572 -0.196401,0.0754 -0.464902,-0.005 -0.596601,-0.17798 z m 7.873798,-0.57958 c 0.493602,-0.50932 0.957001,-0.92604 1.029801,-0.92604 0.073,0 -0.2716,0.41672 -0.765299,0.92604 -0.493602,0.50932 -0.957001,0.92605 -1.029801,0.92605 -0.073,0 0.2716,-0.41673 0.765299,-0.92605 z m 1.322901,-1.02593 c 0,-0.0549 0.208301,-0.2633 0.463,-0.46303 0.4196,-0.32911 0.429001,-0.31975 0.100002,0.0999 -0.345602,0.44073 -0.562901,0.58089 -0.562901,0.36313 z m -46.5733,-0.76001 c -0.483301,-0.32742 -0.924099,-0.73404 -0.979699,-0.90359 -0.1759,-0.5362 0.9216,-0.67237 1.637599,-0.2032 0.5466,0.35812 0.8733,0.39237 1.7121,0.17946 0.718201,-0.18229 1.124001,-0.17576 1.321001,0.0212 0.4439,0.44388 0.344999,0.66276 -0.496202,1.09776 -1.096298,0.56691 -2.1703,0.50249 -3.194799,-0.19164 z m 65.887904,0.33074 c -0.2385,-0.15412 -0.2711,-0.25811 -0.082,-0.26053 0.17331,-0.002 0.38871,0.115 0.47861,0.26053 0.20299,0.32848 0.1114,0.32848 -0.39691,0 z m -17.533103,-0.82658 c 0.179501,-0.18083 0.392999,-0.26212 0.4744,-0.18066 0.082,0.0815 -0.065,0.22941 -0.3263,0.32876 -0.3771,0.14359 -0.4075,0.1132 -0.1481,-0.1481 z m 14.043903,-0.4125 c 0.191,-0.0764 0.4192,-0.067 0.5071,0.0209 0.088,0.0879 -0.068,0.15045 -0.3473,0.13897 -0.3082,-0.0127 -0.37091,-0.0754 -0.1598,-0.15985 z m -2.11671,-0.52916 c 0.191,-0.0764 0.4192,-0.067 0.5071,0.0209 0.088,0.0879 -0.068,0.15045 -0.34719,0.13895 -0.30831,-0.0127 -0.37101,-0.0754 -0.15991,-0.15985 z m -49.565294,-0.4521 c -0.816801,-0.5972 -0.109001,-1.20201 1.200901,-1.02631 0.713399,0.0957 1.250098,0.004 1.700199,-0.29115 0.9281,-0.60811 1.734601,-0.56064 1.734601,0.10209 0,1.24068 -3.386802,2.12861 -4.635701,1.21537 z m 48.507004,0.18751 c 0.191,-0.0764 0.4192,-0.067 0.5071,0.0209 0.088,0.0879 -0.068,0.15045 -0.3473,0.13897 -0.3082,-0.0127 -0.37091,-0.0754 -0.1598,-0.15985 z m -6.2343,-0.26623 c 0.2547,-0.0665 0.6714,-0.0665 0.9261,0 0.2546,0.0666 0.046,0.12101 -0.4631,0.12101 -0.5093,0 -0.7176,-0.0544 -0.463,-0.12101 z m 3.8396,-0.005 c 0.3291,-0.0633 0.8053,-0.0609 1.0583,0.005 0.253,0.0662 -0.016,0.118 -0.5984,0.11507 -0.5821,-0.003 -0.789,-0.0571 -0.4599,-0.12041 z m 38.16299,-1.66496 c 0,-1.13786 0.073,-1.32292 0.51901,-1.32292 0.3821,0 0.5946,0.28078 0.8056,1.06444 0.3376,1.25389 0.19709,1.5814 -0.67871,1.5814 -0.59859,0 -0.6459,-0.0967 -0.6459,-1.32292 z m -3.4396,-0.28299 c 0,-1.23966 0.045,-1.33491 0.5954,-1.25677 0.483,0.0686 0.61121,0.27907 0.67971,1.11595 0.083,1.01506 -0.20691,1.46906 -0.9443,1.47809 -0.2216,0.003 -0.33081,-0.43844 -0.33081,-1.33727 z m -94.921595,0.48143 c -1.624298,-1.73392 -2.852499,-9.14332 -1.9865,-11.98377 0.465302,-1.52614 1.2157,-2.23759 2.360301,-2.23759 0.820401,0 1.229399,0.27255 3.077601,2.05052 3.5945,3.45802 5.8166,6.18705 5.567098,6.83723 -0.176898,0.46099 -0.5095,0.47711 -0.864798,0.0419 -4.447001,-5.44642 -6.9106,-7.87135 -7.996802,-7.87135 -0.731498,0 -1.2793,1.49932 -1.277598,3.49723 0,1.76093 1.068099,7.33342 1.724599,9.00968 0.2149,0.54865 0.390699,1.05467 0.390699,1.12448 0,0.3063 -0.4812,0.0797 -0.9946,-0.46837 z m -4.645499,-2.06037 c -0.3893,-1.08599 -1.357601,-4.41531 -2.1518,-7.39849 -2.933801,-11.02087 -4.329401,-16.07105 -5.1336,-18.57736 -0.453601,-1.41353 -0.960199,-3.39083 -1.1259,-4.394 -0.506,-3.06374 0.403501,-4.06538 3.683799,-4.05723 0.972701,0.002 12.0664,0.0838 24.652502,0.18094 20.814099,0.16058 23.195299,0.13518 26.3261,-0.28084 2.5917,-0.34438 4.291899,-0.41404 6.881699,-0.28193 6.328701,0.32283 7.724604,0.80296 8.681004,2.98602 0.3382,0.77199 2.2992,8.42472 2.2992,8.97261 0,0.0583 -0.2336,0.10596 -0.519,0.10596 -0.5746,0 -0.5666,0.0229 -1.8047,-5.20428 -0.8566,-3.61671 -1.2937,-4.46548 -2.575104,-5.00089 -1.552498,-0.64869 -8.078398,-1.00673 -11.2528,-0.61739 -3.6053,0.44218 -37.802199,0.63921 -46.819299,0.26976 -6.739901,-0.27616 -8.0938,-0.18812 -8.5637,0.55682 -0.3878,0.61471 0.1285,3.45969 1.274598,7.02428 0.5021,1.56167 1.633802,5.63737 2.514902,9.05711 0.881099,3.41974 2.1346,8.24178 2.785599,10.71563 1.408999,5.35494 1.805001,7.16567 1.661099,7.59716 -0.059,0.17636 -0.425399,-0.56788 -0.814599,-1.65388 z m 6.184699,-1.8049 c -0.423198,-1.02159 -0.4338,-2.31145 -0.02299,-2.8063 0.500502,-0.60308 1.532901,-0.49232 2.268601,0.2434 1.124,1.12397 0.6692,2.15232 -0.5877,1.32879 l -0.6847,-0.44863 0.186399,0.99363 c 0.132001,0.70366 0.084,1.05839 -0.163499,1.21553 -0.544499,0.3452 -0.6603,0.28398 -0.996,-0.52642 z m 93.458205,-1.47101 c -0.19651,-0.64035 -0.19401,-0.98805 0.01,-1.19062 0.4068,-0.40681 1.2386,-0.35464 1.2386,0.0777 0,0.20009 0.074,0.73588 0.16539,1.19063 0.14931,0.74658 0.10231,0.82682 -0.48479,0.82682 -0.5095,0 -0.71011,-0.19561 -0.9277,-0.90451 z m -73.805203,-0.40168 c 0.231999,-1.16033 1.0376,-2.70864 1.579401,-3.03555 0.674097,-0.40674 2.102799,1.16112 1.984798,2.17818 -0.115901,0.9991 -0.9262,1.0815 -1.300999,0.13229 l -0.294801,-0.74686 -0.4889,1.12448 c -0.359201,0.82637 -0.640699,1.12448 -1.0619,1.12448 -0.4929,0 -0.551299,-0.10871 -0.417599,-0.77702 z m -55.916401,-6.81613 c -1.7056002,-0.18446 -1.7150002,-0.31691 -0.1021,-1.4341 1.7134,-1.18685 3.8063,-3.11254 3.8063,-3.50229 0,-0.2888 -3.9195,-0.0377 -5.7239002,0.36662 -1.2232,0.27413 -1.8165,0.15513 -1.5308,-0.3071 0.4545,-0.73539 4.9335002,-1.4157 7.5744002,-1.15048 1.6811,0.16881 1.7706,0.21084 1.5051,0.70691 -0.1553,0.29008 -1.1074,1.36738 -2.1158,2.39399 l -1.8336,1.86659 3.179,-0.14648 c 1.7484,-0.0806 3.1789,-0.0677 3.1789,0.0286 0,0.33043 -1.575,0.87184 -3.2342,1.11179 -1.6522,0.23894 -2.9371,0.25695 -4.7033,0.066 z M 6.0373458,228.05738 c -0.3232,-0.84237 0.1748,-1.76275 1.4819,-2.73859 0.7251,-0.54131 1.3183,-1.07785 1.3183,-1.1923 0,-0.11446 -0.7073,-0.20811 -1.5719,-0.20811 -0.8645,0 -1.6456,-0.11929 -1.7357,-0.26508 -0.275,-0.44495 1.1952,-0.82041 2.8918,-0.73851 1.4644,0.0707 1.6143002,0.13323 1.6955002,0.7075 0.068,0.48122 -0.2656002,0.96537 -1.4131002,2.05053 l -1.5022,1.42056 h 1.4423 c 1.8608002,0 3.8975002,0.28052 3.8975002,0.53682 0,0.35847 -0.7471,0.5018 -3.5653002,0.68399 -2.4341,0.15737 -2.7921,0.12609 -2.9391,-0.25681 z"
       id="path864"
       inkscape:connector-curvature="0" />
  </g>
</svg>
