<?xml version="1.0" encoding="UTF-8" standalone="no"?>
<!-- Created with Inkscape (http://www.inkscape.org/) -->

<svg
   xmlns:dc="http://purl.org/dc/elements/1.1/"
   xmlns:cc="http://creativecommons.org/ns#"
   xmlns:rdf="http://www.w3.org/1999/02/22-rdf-syntax-ns#"
   xmlns:svg="http://www.w3.org/2000/svg"
   xmlns="http://www.w3.org/2000/svg"
   xmlns:sodipodi="http://sodipodi.sourceforge.net/DTD/sodipodi-0.dtd"
   xmlns:inkscape="http://www.inkscape.org/namespaces/inkscape"
   width="174mm"
   height="190mm"
   viewBox="0 0 174 190"
   version="1.1"
   id="svg981"
   inkscape:version="0.92.5 (2060ec1f9f, 2020-04-08)"
   sodipodi:docname="html.svg">
  <defs
     id="defs975" />
  <sodipodi:namedview
     id="base"
     pagecolor="#ffffff"
     bordercolor="#666666"
     borderopacity="1.0"
     inkscape:pageopacity="0.0"
     inkscape:pageshadow="2"
     inkscape:zoom="0.175"
     inkscape:cx="-425.2181"
     inkscape:cy="510.8926"
     inkscape:document-units="mm"
     inkscape:current-layer="layer1"
     showgrid="false"
     inkscape:window-width="1294"
     inkscape:window-height="704"
     inkscape:window-x="72"
     inkscape:window-y="27"
     inkscape:window-maximized="1" />
  <metadata
     id="metadata978">
    <rdf:RDF>
      <cc:Work
         rdf:about="">
        <dc:format>image/svg+xml</dc:format>
        <dc:type
           rdf:resource="http://purl.org/dc/dcmitype/StillImage" />
        <dc:title></dc:title>
      </cc:Work>
    </rdf:RDF>
  </metadata>
  <g
     inkscape:label="Camada 1"
     inkscape:groupmode="layer"
     id="layer1"
     transform="translate(0,-107)">
    <path
       style="fill:#e5687c;fill-opacity:1;stroke-width:0.7114557"
       d="m 85.990231,284.65161 c -0.978247,-0.307 -13.455777,-3.81938 -27.727843,-7.80521 -14.272066,-3.98585 -25.993944,-7.30891 -26.048611,-7.38452 -0.05458,-0.0756 -0.624674,-6.38051 -1.266664,-14.01089 -0.641991,-7.63037 -1.64105,-19.15595 -2.220119,-25.6124 -6.377852,-71.10986 -8.902146,-99.59628 -8.902146,-100.46055 0,-0.31138 30.894961,-0.56616 68.6555,-0.56616 37.760512,0 68.655472,0.26029 68.655472,0.57851 0,0.31816 -1.1248,13.20441 -2.49953,28.63609 -1.37471,15.43166 -3.13972,35.26107 -3.9222,44.06533 -0.7825,8.80427 -1.89664,21.29033 -2.47592,27.74678 -0.57924,6.45645 -1.58628,17.98203 -2.23785,25.6124 -0.65155,7.63038 -1.21398,13.92331 -1.24982,13.98432 -0.10891,0.18527 -56.661719,15.93541 -56.860031,15.83568 -0.06695,-0.0336 -0.921966,-0.31235 -1.900238,-0.61938 z m 19.920779,-34.65505 c 9.58687,-2.60978 17.6468,-4.93138 17.91096,-5.15908 0.26406,-0.22775 1.15212,-7.93769 1.97324,-17.13326 1.85499,-20.77396 3.33656,-37.42087 4.68558,-52.64773 0.572,-6.45645 1.2237,-13.41983 1.44823,-15.47414 l 0.40824,-3.73517 H 88.474997 44.612736 l 0.38014,1.95652 c 0.208933,1.07607 0.592729,5.07801 0.85259,8.89319 l 0.472451,6.9367 h 33.08975 33.089723 l -0.48783,7.29243 c -0.26836,4.01081 -0.65127,7.85267 -0.85104,8.53747 -0.33563,1.15047 -2.00564,1.24504 -21.987914,1.24504 H 67.545937 l 0.420043,4.80231 c 0.230983,2.64129 0.619162,6.72327 0.86254,9.07106 l 0.442523,4.26874 20.0986,0.18903 c 15.377117,0.14467 20.095157,0.39525 20.083867,1.06717 -0.0349,2.07371 -2.03362,20.59318 -2.24386,20.79069 -0.12719,0.11966 -4.38512,1.36172 -9.461803,2.76022 l -9.230364,2.54274 -9.392211,-2.56844 -9.39221,-2.56845 -0.433354,-3.63616 c -0.238243,-1.99989 -0.612439,-5.1569 -0.831348,-7.01556 l -0.398048,-3.37942 h -8.826425 c -6.581998,0 -8.828738,0.22615 -8.835541,0.88933 -0.01882,1.80198 2.363602,26.51092 2.581112,26.77382 0.191186,0.23098 34.114973,9.89239 35.13514,10.00634 0.195756,0.0215 8.199549,-2.09553 17.786412,-4.70531 z"
       id="path917"
       inkscape:connector-curvature="0" />
  </g>
</svg>
