<?xml version="1.0" encoding="UTF-8" standalone="no"?>
<!-- Created with Inkscape (http://www.inkscape.org/) -->

<svg
   xmlns:dc="http://purl.org/dc/elements/1.1/"
   xmlns:cc="http://creativecommons.org/ns#"
   xmlns:rdf="http://www.w3.org/1999/02/22-rdf-syntax-ns#"
   xmlns:svg="http://www.w3.org/2000/svg"
   xmlns="http://www.w3.org/2000/svg"
   xmlns:sodipodi="http://sodipodi.sourceforge.net/DTD/sodipodi-0.dtd"
   xmlns:inkscape="http://www.inkscape.org/namespaces/inkscape"
   width="174mm"
   height="190mm"
   viewBox="0 0 174 190"
   version="1.1"
   id="svg981"
   inkscape:version="0.92.5 (2060ec1f9f, 2020-04-08)"
   sodipodi:docname="html.svg">
  <defs
     id="defs975" />
  <sodipodi:namedview
     id="base"
     pagecolor="#ffffff"
     bordercolor="#666666"
     borderopacity="1.0"
     inkscape:pageopacity="0.0"
     inkscape:pageshadow="2"
     inkscape:zoom="0.175"
     inkscape:cx="-425.2181"
     inkscape:cy="510.8926"
     inkscape:document-units="mm"
     inkscape:current-layer="layer1"
     showgrid="false"
     inkscape:window-width="1294"
     inkscape:window-height="704"
     inkscape:window-x="72"
     inkscape:window-y="27"
     inkscape:window-maximized="1" />
  <metadata
     id="metadata978">
    <rdf:RDF>
      <cc:Work
         rdf:about="">
        <dc:format>image/svg+xml</dc:format>
        <dc:type
           rdf:resource="http://purl.org/dc/dcmitype/StillImage" />
        <dc:title></dc:title>
      </cc:Work>
    </rdf:RDF>
  </metadata>
  <g
     inkscape:label="Camada 1"
     inkscape:groupmode="layer"
     id="layer1"
     transform="translate(0,-107)">
    <path
       style="fill:#1ebbbf;fill-opacity:1;stroke-width:0.30960935"
       d="m 86.632481,279.81268 c -0.866102,-0.24606 -12.638986,-3.51209 -26.161983,-7.25784 -13.523005,-3.74576 -25.170476,-7.1075 -25.883271,-7.4705 -0.789176,-0.40192 -1.472744,-1.0408 -1.74801,-1.63376 -0.319287,-0.68779 -2.236091,-21.02105 -6.527446,-69.24259 -3.341474,-37.54788 -6.072797,-68.92055 -6.069624,-69.71705 0.0056,-1.19193 0.150173,-1.5617 0.821576,-2.08987 l 0.815775,-0.64168 h 68.030559 68.030563 l 0.81577,0.64168 c 0.67152,0.52822 0.81675,0.89777 0.82131,2.08987 0.003,0.7965 -2.72539,32.09949 -6.06322,69.56223 -4.78387,53.69281 -6.17802,68.33925 -6.58474,69.1777 -0.28379,0.58502 -0.8643,1.31736 -1.29001,1.62744 -1.2013,0.87503 -52.964918,15.15809 -55.420073,15.29198 -1.16412,0.0634 -2.676266,-0.0789 -3.587176,-0.33761 z M 106.562,245.75224 c 8.9768,-2.47228 16.90641,-4.76584 17.62133,-5.09679 1.05021,-0.48617 1.36105,-0.82701 1.61833,-1.77456 0.17514,-0.64505 1.29973,-12.28782 2.49908,-25.87284 1.59192,-18.03184 2.09343,-24.86296 1.85768,-25.30346 -0.17759,-0.33189 -0.58925,-0.74595 -0.91473,-0.92016 -0.39163,-0.20957 -10.70806,-0.31669 -30.504794,-0.31669 -32.773729,0 -31.326946,0.0823 -31.988589,-1.81589 -0.535965,-1.53747 -1.479088,-14.23852 -1.102117,-14.84226 0.815495,-1.30605 0.387239,-1.28988 34.246756,-1.29463 32.232384,-0.003 32.431584,-0.008 32.431584,-0.62427 0,-0.34086 0.29164,-3.76273 0.64808,-7.60421 0.35643,-3.84146 0.56048,-7.33352 0.4534,-7.76014 -0.43782,-1.74442 1.35721,-1.67969 -44.105259,-1.59064 -40.574143,0.0794 -41.782846,0.0986 -42.415955,0.67157 -0.502703,0.45499 -0.649891,0.9504 -0.643884,2.16727 0.0038,0.8676 0.95645,12.13983 2.115934,25.04939 l 2.108124,23.47193 0.832295,0.8324 0.832295,0.83241 29.018951,0.1603 c 15.960435,0.0882 29.050209,0.19266 29.088409,0.23221 0.0383,0.0396 0.27513,0.46963 0.5265,0.95573 0.40915,0.79119 0.37355,1.83781 -0.33954,9.98489 -0.51027,5.82988 -0.96174,9.461 -1.25609,10.10243 -0.25271,0.55075 -0.89746,1.26002 -1.43275,1.57619 -0.53531,0.31616 -4.77655,1.59359 -9.424994,2.83873 l -8.451742,2.26393 -8.542518,-2.29205 c -4.698399,-1.26064 -8.93432,-2.52971 -9.413183,-2.82019 -1.405054,-0.85228 -1.752591,-1.96142 -2.246303,-7.16909 -0.491891,-5.18843 -0.820918,-6.1696 -2.251276,-6.71343 -0.427899,-0.16275 -3.756608,-0.29579 -7.397171,-0.29579 -6.472508,0 -6.637642,0.015 -7.452216,0.71656 -1.042686,0.89686 -1.045747,0.64663 0.174951,14.25084 0.981135,10.93445 1.160329,11.80418 2.630613,12.76755 0.733839,0.48084 33.198673,9.6679 34.305126,9.70785 0.303743,0.0112 7.896909,-2.00284 16.873713,-4.47509 z"
       id="path905"
       inkscape:connector-curvature="0" />
  </g>
</svg>
