<?xml version="1.0" encoding="UTF-8" standalone="no"?>
<!-- Created with Inkscape (http://www.inkscape.org/) -->

<svg
   xmlns:dc="http://purl.org/dc/elements/1.1/"
   xmlns:cc="http://creativecommons.org/ns#"
   xmlns:rdf="http://www.w3.org/1999/02/22-rdf-syntax-ns#"
   xmlns:svg="http://www.w3.org/2000/svg"
   xmlns="http://www.w3.org/2000/svg"
   xmlns:sodipodi="http://sodipodi.sourceforge.net/DTD/sodipodi-0.dtd"
   xmlns:inkscape="http://www.inkscape.org/namespaces/inkscape"
   width="174mm"
   height="190mm"
   viewBox="0 0 174 190"
   version="1.1"
   id="svg981"
   inkscape:version="0.92.5 (2060ec1f9f, 2020-04-08)"
   sodipodi:docname="react.svg">
  <defs
     id="defs975" />
  <sodipodi:namedview
     id="base"
     pagecolor="#ffffff"
     bordercolor="#666666"
     borderopacity="1.0"
     inkscape:pageopacity="0.0"
     inkscape:pageshadow="2"
     inkscape:zoom="0.49497475"
     inkscape:cx="82.303598"
     inkscape:cy="410.7582"
     inkscape:document-units="mm"
     inkscape:current-layer="layer1"
     showgrid="false"
     inkscape:window-width="1294"
     inkscape:window-height="704"
     inkscape:window-x="72"
     inkscape:window-y="27"
     inkscape:window-maximized="1" />
  <metadata
     id="metadata978">
    <rdf:RDF>
      <cc:Work
         rdf:about="">
        <dc:format>image/svg+xml</dc:format>
        <dc:type
           rdf:resource="http://purl.org/dc/dcmitype/StillImage" />
        <dc:title></dc:title>
      </cc:Work>
    </rdf:RDF>
  </metadata>
  <g
     inkscape:label="Camada 1"
     inkscape:groupmode="layer"
     id="layer1"
     transform="translate(0,-107)">
    <path
       style="fill:#51e8c7;fill-opacity:1;stroke-width:0.39027491"
       d="m 85.631266,284.24592 c -8.521301,-3.047 -16.040233,-12.99032 -21.295793,-28.16243 -2.14523,-6.19298 -1.27436,-5.76324 -8.750276,-4.31788 -3.980185,0.76952 -5.913761,0.90553 -12.879073,0.90594 -9.399405,4.1e-4 -11.945747,-0.47032 -17.619945,-3.2585 -13.792028,-6.77707 -11.466545,-23.98754 5.91978,-43.81111 l 3.370972,-3.84354 -2.499068,-2.81055 C 21.559117,187.34309 16.209374,176.77498 16.230555,168.03754 c 0.01593,-6.56413 2.835512,-10.96063 8.867573,-13.8269 5.380809,-2.5568 7.775928,-2.9569 17.607996,-2.94133 7.399657,0.0118 9.233165,0.14072 13.269345,0.9338 7.017026,1.37879 6.202678,1.75229 8.022261,-3.67931 4.613736,-13.7723 12.009646,-24.53783 19.346876,-28.16137 2.881345,-1.42297 3.226594,-1.49947 6.76195,-1.49809 3.409512,0.001 3.945918,0.10914 6.322732,1.27059 7.767012,3.79542 15.609132,15.09562 20.243072,29.16941 0.70678,2.14652 1.33715,3.968 1.40088,4.04776 0.0637,0.0798 2.53859,-0.31723 5.49974,-0.88215 16.83202,-3.21126 30.06973,-1.47814 36.34433,4.75834 6.28064,6.24245 5.29135,17.33656 -2.69404,30.21165 -2.33231,3.76044 -5.93831,8.51699 -8.80088,11.6089 l -2.18794,2.36325 1.89864,2.19303 c 5.61791,6.48901 9.10958,11.46617 11.79802,16.81726 5.61392,11.17406 5.56902,20.4892 -0.12538,26.02356 -6.41189,6.23164 -20.08984,7.99201 -36.46245,4.69274 -2.65819,-0.53566 -4.86872,-0.92425 -4.9123,-0.86353 -0.0436,0.0608 -0.73284,2.04225 -1.53168,4.40343 -1.85441,5.48109 -5.49796,13.06821 -8.32985,17.34564 -3.16253,4.77683 -7.75664,9.2067 -11.52937,11.11725 -2.658756,1.34642 -3.421595,1.55042 -6.24065,1.66896 -2.374499,0.0999 -3.721622,-0.0474 -5.168117,-0.56451 z m 8.51964,-7.629 c 1.280082,-0.58606 3.058128,-1.86912 4.165127,-3.00564 2.585547,-2.65449 6.603537,-8.75771 8.749707,-13.2906 2.00859,-4.24228 4.62557,-11.76426 4.21569,-12.11715 -0.15245,-0.13129 -2.47249,-0.97846 -5.15564,-1.88271 -2.68313,-0.90424 -7.349378,-2.68988 -10.369423,-3.96813 l -5.490992,-2.32406 -3.290201,1.51812 c -3.876147,1.78849 -11.17944,4.67752 -14.900857,5.89447 -1.488992,0.48689 -2.634359,1.08572 -2.634359,1.37729 0,1.06868 2.862421,8.74646 4.718525,12.65637 2.523967,5.31678 5.562507,9.83547 8.493837,12.63139 4.188256,3.99479 6.94298,4.59628 11.498586,2.51065 z M 51.097033,245.32968 c 4.109002,-0.55398 8.878723,-1.54625 9.258593,-1.92611 0.111514,-0.11152 -0.253573,-2.62563 -0.811455,-5.58678 -1.126396,-5.97864 -2.202123,-13.51854 -2.203864,-15.44689 -0.0012,-1.1505 -0.415272,-1.56786 -4.97601,-5.01349 -2.736183,-2.06719 -6.726133,-5.293 -8.866556,-7.16848 l -3.891682,-3.40996 -2.374838,2.50668 c -5.027445,5.30653 -10.27895,13.13297 -12.256689,18.26641 -3.368464,8.74328 -2.092349,13.24922 4.62297,16.3236 4.053392,1.8557 13.690089,2.50788 21.499531,1.45502 z m 96.093517,-0.41142 c 7.26535,-1.48234 9.9293,-4.39655 9.80775,-10.72911 -0.10783,-5.61691 -5.52975,-15.97022 -12.61953,-24.09726 l -3.14731,-3.60779 -3.79565,3.34579 c -2.08759,1.84019 -6.08859,5.0786 -8.89107,7.19646 l -5.09545,3.85068 -0.87696,7.14389 c -0.48232,3.92915 -1.21604,8.89155 -1.63045,11.02755 -0.56656,2.9201 -0.63959,3.95403 -0.29444,4.16735 0.71681,0.443 9.03546,1.9395 12.75812,2.29514 4.10034,0.39172 10.25761,0.12701 13.78499,-0.5927 z m -68.245958,-7.60508 3.065106,-1.2792 -2.869968,-1.56346 c -1.578487,-0.85989 -5.387655,-3.04545 -8.464825,-4.85676 -3.077186,-1.81132 -5.653382,-3.2348 -5.724896,-3.16329 -0.164864,0.16487 1.560919,10.75405 2.158923,13.24679 l 0.448577,1.86991 4.160999,-1.48739 c 2.288545,-0.81806 5.540277,-2.06303 7.226084,-2.7666 z m 34.856398,1.33498 c 0.6887,-3.35003 1.6914,-10.1499 1.6914,-11.47025 v -1.13346 l -3.61004,2.26264 c -1.98552,1.24444 -5.77308,3.45865 -8.41678,4.92046 -3.07685,1.70131 -4.621866,2.75882 -4.293032,2.93842 0.475129,0.25953 9.550332,3.66033 12.221952,4.58001 0.64397,0.2217 1.3419,0.36067 1.55097,0.30889 0.20908,-0.0518 0.59406,-1.13483 0.85553,-2.40671 z m -9.74516,-13.88175 c 1.88976,-1.11003 5.47217,-3.30298 7.96089,-4.87324 l 4.52497,-2.85502 0.25431,-4.98656 c 0.3249,-6.37044 0.32556,-13.39578 10e-4,-20.14461 l -0.2556,-5.32946 -3.54959,-2.27805 c -5.6176,-3.60519 -9.9531,-6.13677 -16.503655,-9.63674 l -6.091548,-3.2547 -5.047578,2.52934 c -5.355736,2.68377 -13.869707,7.62381 -18.519785,10.7457 -2.671741,1.7937 -2.818567,1.97131 -3.093238,3.74161 -0.382613,2.46606 -0.385311,23.48916 -0.0031,26.35323 0.292828,2.1959 0.353346,2.28531 2.561492,3.78483 4.449045,3.02131 11.638034,7.22885 17.780175,10.40633 l 6.244396,3.23038 5.150111,-2.70741 c 2.832561,-1.48908 6.69627,-3.61561 8.58604,-4.72563 z m -16.89462,-8.54185 c -4.284594,-0.84949 -8.382574,-4.02247 -10.345962,-8.01066 -3.271081,-6.64452 -1.011327,-14.91711 5.165288,-18.90925 5.831602,-3.76915 13.694069,-2.97148 18.547224,1.88169 7.10356,7.10354 5.22551,19.14837 -3.685398,23.63637 -3.17203,1.5976 -6.363137,2.05968 -9.681152,1.40185 z M 56.365752,201.82442 v -9.72879 l -1.365959,1.01508 c -2.597646,1.93036 -10.147155,8.36734 -10.147155,8.65183 0,0.32611 5.581432,5.17519 9.131535,7.93337 1.309865,1.01767 2.381579,1.85188 2.381579,1.85379 0,0.001 0,-4.37446 0,-9.72528 z m 75.611458,3.36214 c 2.09049,-1.75731 3.79108,-3.37072 3.77909,-3.58537 -0.0335,-0.59964 -10.9349,-9.56119 -11.63184,-9.56203 -0.13261,-1.6e-4 -0.19133,4.40067 -0.13039,9.7796 l 0.11077,9.77988 2.03579,-1.60849 c 1.11968,-0.88468 3.7462,-3.04628 5.83667,-4.80359 z M 44.069502,192.87165 c 1.825956,-1.58147 5.558612,-4.56706 8.294795,-6.63466 4.700235,-3.55174 4.975285,-3.83469 4.982115,-5.12525 0.01033,-1.94008 1.404314,-11.55598 2.368627,-16.33853 0.44858,-2.22467 0.668792,-4.1759 0.489382,-4.33603 -0.380919,-0.33996 -5.634844,-1.36012 -10.01375,-1.94434 -3.936878,-0.52526 -12.344042,-0.52359 -15.315939,0.003 -12.254888,2.17158 -14.625863,7.96589 -8.375818,20.46934 2.483387,4.96811 6.021601,10.05258 10.3395,14.85799 2.28756,2.54583 2.714632,2.86257 3.271111,2.42598 0.352036,-0.27617 2.134021,-1.79606 3.959977,-3.37754 z m 100.487618,-0.13924 c 7.81953,-9.27391 12.30441,-18.22345 12.30441,-24.55335 0,-3.23408 -0.61367,-4.87201 -2.38322,-6.36099 -4.97839,-4.18905 -17.99251,-4.98589 -31.88007,-1.952 -2.40288,0.52494 -2.81214,0.72899 -2.62771,1.31007 0.67348,2.12198 2.09612,11.01775 3.16976,19.82047 0.18648,1.52905 0.40521,1.78523 3.20351,3.75211 3.38053,2.37614 9.91365,7.55421 12.56509,9.95893 0.96592,0.87606 1.94894,1.60002 2.18449,1.60882 0.23552,0.009 1.79421,-1.60402 3.46374,-3.58406 z M 70.72811,173.9494 c 3.047919,-1.7928 6.756488,-3.9253 8.241292,-4.73891 l 2.699632,-1.47928 -1.333671,-0.68184 c -1.168789,-0.59755 -9.595673,-3.73613 -11.948282,-4.45014 -1.040593,-0.31582 -1.258842,0.36061 -2.447292,7.58483 -0.441398,2.68315 -0.883783,5.36141 -0.983083,5.95171 -0.09927,0.59029 -0.0882,1.07325 0.02462,1.07325 0.112842,0 2.698896,-1.46682 5.746798,-3.25962 z m 44.75727,2.77177 c -0.0133,-0.89647 -1.0729,-7.47242 -1.76293,-10.93649 -0.63142,-3.16971 -0.74306,-3.40521 -1.50497,-3.17442 -1.61166,0.48818 -10.21875,3.6325 -11.91203,4.35168 l -1.722461,0.73157 5.039801,2.79289 c 2.77188,1.53608 6.44479,3.66277 8.162,4.72598 3.40849,2.11037 3.71101,2.23371 3.70059,1.50879 z M 95.165933,161.44946 c 2.700827,-1.15495 7.369327,-2.94107 10.374457,-3.96914 3.00512,-1.02805 5.53113,-1.92125 5.61336,-1.98486 0.30394,-0.23509 -2.81048,-8.63795 -4.63584,-12.50768 -5.01615,-10.63424 -11.412689,-17.29845 -16.588523,-17.28266 -6.033373,0.0185 -13.344972,9.20445 -18.645345,23.42546 -0.764416,2.05093 -1.504069,4.33782 -1.643681,5.082 l -0.253828,1.35303 3.441611,1.11372 c 3.646929,1.18018 11.372234,4.19726 14.954728,5.84051 1.180589,0.54152 2.219852,0.99471 2.309494,1.00706 0.08969,0.0118 2.372743,-0.92247 5.073567,-2.07744 z"
       id="path960"
       inkscape:connector-curvature="0" />
  </g>
</svg>
