<?xml version="1.0" encoding="UTF-8" standalone="no"?>
<!-- Created with Inkscape (http://www.inkscape.org/) -->

<svg
   xmlns:dc="http://purl.org/dc/elements/1.1/"
   xmlns:cc="http://creativecommons.org/ns#"
   xmlns:rdf="http://www.w3.org/1999/02/22-rdf-syntax-ns#"
   xmlns:svg="http://www.w3.org/2000/svg"
   xmlns="http://www.w3.org/2000/svg"
   xmlns:sodipodi="http://sodipodi.sourceforge.net/DTD/sodipodi-0.dtd"
   xmlns:inkscape="http://www.inkscape.org/namespaces/inkscape"
   width="174mm"
   height="190mm"
   viewBox="0 0 174 190"
   version="1.1"
   id="svg981"
   inkscape:version="0.92.5 (2060ec1f9f, 2020-04-08)"
   sodipodi:docname="scss.svg">
  <defs
     id="defs975" />
  <sodipodi:namedview
     id="base"
     pagecolor="#ffffff"
     bordercolor="#666666"
     borderopacity="1.0"
     inkscape:pageopacity="0.0"
     inkscape:pageshadow="2"
     inkscape:zoom="0.49497475"
     inkscape:cx="82.303598"
     inkscape:cy="410.7582"
     inkscape:document-units="mm"
     inkscape:current-layer="layer1"
     showgrid="false"
     inkscape:window-width="1294"
     inkscape:window-height="704"
     inkscape:window-x="72"
     inkscape:window-y="27"
     inkscape:window-maximized="1" />
  <metadata
     id="metadata978">
    <rdf:RDF>
      <cc:Work
         rdf:about="">
        <dc:format>image/svg+xml</dc:format>
        <dc:type
           rdf:resource="http://purl.org/dc/dcmitype/StillImage" />
        <dc:title></dc:title>
      </cc:Work>
    </rdf:RDF>
  </metadata>
  <g
     inkscape:label="Camada 1"
     inkscape:groupmode="layer"
     id="layer1"
     transform="translate(0,-107)">
    <path
       style="fill:#ffc1c2;fill-opacity:1;stroke-width:1.26635957"
       d="m 20.284819,257.40037 c -6.006685,-2.42011 -7.312515,-12.04357 -2.593951,-19.11586 2.413127,-3.61682 11.08704,-10.26936 20.507989,-15.72879 1.917943,-1.11146 0.606752,-2.49339 -9.252187,-9.75134 C 9.3693175,198.392 5.8447295,190.18547 13.499844,176.8386 c 5.724727,-9.98118 16.417955,-18.71405 32.345942,-26.41612 16.399241,-7.92994 22.36845,-9.51835 35.770211,-9.51835 21.886383,0 31.975633,12.10067 24.284763,29.12629 -5.15497,11.41178 -16.120201,19.6221 -30.466384,22.81199 -13.554491,3.01384 -27.461201,-0.33504 -28.755592,-6.92435 -0.374284,-1.90493 0.08902,-1.81988 3.393349,0.62302 3.370279,2.49177 4.940836,2.75774 13.166231,2.22986 11.678523,-0.74948 21.533489,-5.04604 29.231966,-12.74451 14.2496,-14.2496 9.68735,-26.24263 -9.986874,-26.25301 -11.087136,-0.005 -19.596546,2.43648 -33.471763,9.60694 -18.55147,9.58713 -27.859895,19.76646 -27.859895,30.46639 0,6.35368 3.38215,10.88348 15.322576,20.52186 l 9.96773,8.04606 7.300023,-4.09851 c 4.014986,-2.25417 9.422577,-6.0029 12.016911,-8.3305 8.146373,-7.30887 14.911629,-6.9076 14.911629,0.8845 0,2.56767 0.509495,3.40876 1.771436,2.92449 2.992693,-1.14836 3.399092,1.49867 1.405336,9.15325 -1.050724,4.03394 -1.910381,8.7662 -1.910381,10.51605 0,3.05108 0.06844,3.07913 1.664272,0.68371 1.87836,-2.81924 12.821049,-27.56947 14.120459,-31.93782 0.84861,-2.8526 5.774561,-5.03144 8.110861,-3.58753 0.71114,0.43938 0.94677,3.65971 0.54942,7.50966 -0.43794,4.24109 -0.11152,7.83154 0.87971,9.68376 1.53361,2.86558 1.68892,2.74515 5.85797,-4.54113 2.35546,-4.1166 4.87283,-9.62173 5.59416,-12.23359 1.18632,-4.29546 1.72133,-4.74886 5.60349,-4.74886 h 4.29192 l -0.71415,6.91952 c -0.83941,8.1335 1.40265,15.17157 4.45943,13.99856 11.3678,-4.36223 23.27378,-2.86213 29.90358,3.76768 2.29892,2.29893 4.46537,5.67337 4.81429,7.4987 0.79575,4.16269 -2.69188,11.35497 -5.78638,11.93281 -2.11662,0.39535 -2.08747,0.19193 0.31637,-2.21239 3.54707,-3.54708 3.33754,-7.96536 -0.59958,-12.64438 -4.80945,-5.71569 -17.10985,-8.29293 -25.09316,-5.25769 -2.74945,1.04536 -3.08526,1.78072 -2.48946,5.4521 0.54438,3.35458 -0.01,5.07371 -2.64435,8.20482 -3.78559,4.49892 -11.5751,7.709 -13.6563,5.6278 -2.12767,-2.12767 -0.003,-9.49332 4.00436,-13.88058 l 3.71791,-4.0706 -2.19502,-6.45769 -2.19502,-6.45764 -4.6259,7.79377 c -4.12646,6.9522 -4.54727,8.45796 -3.89744,13.945 0.63987,5.40271 0.34222,6.53757 -2.44639,9.32618 -3.55886,3.55881 -12.347451,6.65958 -15.474444,5.45966 -2.514595,-0.96495 -1.227479,-3.80716 5.411943,-11.95043 l 4.425511,-5.42788 -2.35551,-6.92971 -2.355451,-6.92971 -7.268001,14.88985 c -7.332856,15.02281 -11.050186,19.78531 -14.43066,18.4881 -1.014635,-0.3896 -2.195161,-2.89922 -2.623434,-5.57745 l -0.778674,-4.86957 -3.126564,6.27414 c -2.665457,5.34886 -3.665303,6.27414 -6.779806,6.27414 -5.631778,0 -7.977132,-5.62503 -7.225883,-17.3305 l 0.594977,-9.27124 -3.854695,2.4406 c -3.751742,2.37546 -3.856609,2.70786 -3.92577,12.44169 -0.08998,12.69565 -3.463133,18.57703 -13.531421,23.59421 -6.880317,3.42862 -11.115949,3.97377 -15.899653,2.04635 z m 14.267018,-8.91949 c 5.978015,-3.69465 9.394434,-9.82773 9.394434,-16.8649 0,-3.22616 -0.477188,-5.86573 -1.0602,-5.86573 -2.443663,0 -15.563181,10.56735 -17.307622,13.94074 -1.975617,3.82043 -2.500476,9.09142 -1.049718,10.54218 1.586256,1.58625 5.818346,0.8464 10.023106,-1.75229 z m 68.827103,-16.27777 c 3.77165,-5.29684 3.22191,-6.2381 -1.18014,-2.02061 -3.845361,3.68407 -4.771171,5.6986 -2.618941,5.6986 0.649061,0 2.358611,-1.65508 3.799081,-3.67799 z m -31.984008,-8.44613 c 4.388504,-10.76469 5.308228,-17.00212 2.507033,-17.00212 -4.224815,0 -10.888411,12.80023 -10.932492,21.00045 -0.05648,10.49038 3.136519,8.9752 8.425459,-3.99833 z m 53.506438,3.72202 c 2.6937,-3.42451 3.53431,-8.06056 1.46153,-8.06056 -1.3581,0 -6.43505,7.86092 -6.43505,9.96376 0,2.44026 2.22737,1.58793 4.97352,-1.9032 z"
       id="path958"
       inkscape:connector-curvature="0" />
  </g>
</svg>
