<?xml version="1.0" encoding="UTF-8" standalone="no"?>
<!-- Created with Inkscape (http://www.inkscape.org/) -->

<svg
   xmlns:dc="http://purl.org/dc/elements/1.1/"
   xmlns:cc="http://creativecommons.org/ns#"
   xmlns:rdf="http://www.w3.org/1999/02/22-rdf-syntax-ns#"
   xmlns:svg="http://www.w3.org/2000/svg"
   xmlns="http://www.w3.org/2000/svg"
   xmlns:sodipodi="http://sodipodi.sourceforge.net/DTD/sodipodi-0.dtd"
   xmlns:inkscape="http://www.inkscape.org/namespaces/inkscape"
   width="174mm"
   height="190mm"
   viewBox="0 0 174 190"
   version="1.1"
   id="svg981"
   inkscape:version="0.92.5 (2060ec1f9f, 2020-04-08)"
   sodipodi:docname="svelte.svg">
  <defs
     id="defs975" />
  <sodipodi:namedview
     id="base"
     pagecolor="#ffffff"
     bordercolor="#666666"
     borderopacity="1.0"
     inkscape:pageopacity="0.0"
     inkscape:pageshadow="2"
     inkscape:zoom="0.175"
     inkscape:cx="-425.2181"
     inkscape:cy="510.8926"
     inkscape:document-units="mm"
     inkscape:current-layer="layer1"
     showgrid="false"
     inkscape:window-width="1294"
     inkscape:window-height="704"
     inkscape:window-x="72"
     inkscape:window-y="27"
     inkscape:window-maximized="1" />
  <metadata
     id="metadata978">
    <rdf:RDF>
      <cc:Work
         rdf:about="">
        <dc:format>image/svg+xml</dc:format>
        <dc:type
           rdf:resource="http://purl.org/dc/dcmitype/StillImage" />
        <dc:title></dc:title>
      </cc:Work>
    </rdf:RDF>
  </metadata>
  <g
     inkscape:label="Camada 1"
     inkscape:groupmode="layer"
     id="layer1"
     transform="translate(0,-107)">
    <path
       style="fill:#f39ca4;fill-opacity:1;stroke-width:0.35277778"
       d="M 61.937696,285.45437 C 40.848425,282.09135 23.891954,266.28434 19.792034,246.1657 c -2.26587,-11.11884 -0.35107,-23.17813 5.10692,-32.16295 l 1.20639,-1.98594 -1.42037,-3.2946 c -8.07441,-18.72873 -3.02806,-40.52927 12.26819,-52.99939 3.546831,-2.89152 44.152,-28.67384 48.26787,-30.64776 7.11475,-3.41216 13.6877,-4.72291 22.224996,-4.43201 6.16114,0.20994 9.05667,0.71388 14.51478,2.52617 17.16539,5.69952 30.1381,20.03502 33.6281,37.16076 2.26588,11.11884 0.35107,23.17813 -5.10692,32.16295 l -1.20639,1.98594 1.42038,3.2946 c 8.0744,18.72874 3.02805,40.52927 -12.2682,52.99939 -3.54683,2.89152 -44.151996,28.67384 -48.267856,30.64777 -4.00892,1.92263 -8.40208,3.28147 -13.04226,4.03409 -3.82586,0.62053 -11.28754,0.62036 -15.179968,-2.6e-4 z m 13.337278,-18.77246 c 2.81403,-0.61978 6.06219,-1.88757 8.12631,-3.1718 11.878,-7.39008 41.093586,-26.23322 42.429646,-27.36579 4.03279,-3.41858 7.22668,-8.39461 8.661,-13.4937 1.13083,-4.02021 1.12927,-10.4764 -0.003,-14.46389 -4.60151,-16.19782 -21.171,-25.80885 -37.362926,-21.67212 -3.61399,0.92331 -6.22311,2.30437 -15.22373,8.05822 -4.34795,2.77953 -8.43066,5.27318 -9.0727,5.54143 -1.383567,0.5781 -4.618559,0.64005 -6.017718,0.11525 -5.876301,-2.20408 -7.93069,-9.38085 -3.87232,-13.5275 1.78829,-1.8272 40.582914,-26.5682 42.481884,-27.09253 3.00529,-0.8298 6.76806,0.33703 8.89361,2.75789 1.62359,1.84918 2.23725,3.49816 2.22635,5.98248 l -0.009,2.14368 1.63089,0.43433 c 4.09254,1.0899 11.32562,4.73721 15.08095,7.60462 0.90445,0.6906 1.75726,1.25564 1.89512,1.25564 0.42856,0 1.74766,-4.97156 2.12831,-8.02139 1.13288,-9.07691 -3.01367,-18.99861 -10.61897,-25.40868 -8.74379,-7.36962 -20.71872,-9.31123 -31.281336,-5.07196 -2.18711,0.8778 -0.0662,-0.4288 -24.609287,15.16061 -18.553049,11.78463 -19.94947,12.74272 -22.941201,15.74007 -3.610779,3.61757 -5.570819,6.92228 -6.92643,11.67826 -1.13544,3.9835 -1.134089,10.44122 0.003,14.44392 4.601499,16.19782 21.171001,25.80885 37.362928,21.67212 3.59944,-0.91959 6.19581,-2.29324 15.25587,-8.07136 4.36562,-2.78421 8.448336,-5.27681 9.072686,-5.53912 1.35389,-0.56879 4.5967,-0.62537 5.98559,-0.10442 5.8763,2.20408 7.93069,9.38085 3.87232,13.52751 -1.78829,1.82719 -40.582915,26.56819 -42.481885,27.09252 -3.005288,0.8298 -6.76806,-0.33703 -8.893609,-2.75789 -1.623589,-1.84918 -2.237261,-3.49816 -2.22635,-5.98248 l 0.009,-2.14368 -1.630889,-0.43433 c -4.092321,-1.0899 -11.325399,-4.73721 -15.08073,-7.60462 -0.90445,-0.6906 -1.75726,-1.25564 -1.89512,-1.25564 -0.42856,0 -1.74766,4.97156 -2.12831,8.02139 -1.41852,11.36555 5.36305,23.5465 16.23876,29.16781 6.71295,3.4697 13.631881,4.39076 20.921997,2.78515 z"
       id="path911"
       inkscape:connector-curvature="0" />
  </g>
</svg>
