<?xml version="1.0" encoding="UTF-8" standalone="no"?>
<!-- Created with Inkscape (http://www.inkscape.org/) -->

<svg
   xmlns:dc="http://purl.org/dc/elements/1.1/"
   xmlns:cc="http://creativecommons.org/ns#"
   xmlns:rdf="http://www.w3.org/1999/02/22-rdf-syntax-ns#"
   xmlns:svg="http://www.w3.org/2000/svg"
   xmlns="http://www.w3.org/2000/svg"
   xmlns:sodipodi="http://sodipodi.sourceforge.net/DTD/sodipodi-0.dtd"
   xmlns:inkscape="http://www.inkscape.org/namespaces/inkscape"
   width="174mm"
   height="190mm"
   viewBox="0 0 174 190"
   version="1.1"
   id="svg981"
   inkscape:version="0.92.5 (2060ec1f9f, 2020-04-08)"
   sodipodi:docname="angular.svg">
  <defs
     id="defs975" />
  <sodipodi:namedview
     id="base"
     pagecolor="#ffffff"
     bordercolor="#666666"
     borderopacity="1.0"
     inkscape:pageopacity="0.0"
     inkscape:pageshadow="2"
     inkscape:zoom="0.35"
     inkscape:cx="-130"
     inkscape:cy="560"
     inkscape:document-units="mm"
     inkscape:current-layer="layer1"
     showgrid="false"
     inkscape:window-width="1294"
     inkscape:window-height="704"
     inkscape:window-x="72"
     inkscape:window-y="27"
     inkscape:window-maximized="1" />
  <metadata
     id="metadata978">
    <rdf:RDF>
      <cc:Work
         rdf:about="">
        <dc:format>image/svg+xml</dc:format>
        <dc:type
           rdf:resource="http://purl.org/dc/dcmitype/StillImage" />
        <dc:title></dc:title>
      </cc:Work>
    </rdf:RDF>
  </metadata>
  <g
     inkscape:label="Camada 1"
     inkscape:groupmode="layer"
     id="layer1"
     transform="translate(0,-107)">
    <path
       style="fill:#d5586a;fill-opacity:1;stroke-width:0.26458332"
       d="m 53.557546,273.13388 c -19.123999,-10.63498 -34.804,-19.3622 -34.844,-19.39381 -0.18,-0.1408 -12.6469996,-109.0284 -12.5029996,-109.20252 0.142,-0.17241 10.0439996,-3.73919 68.4160006,-24.64496 l 13.769995,-4.93187 40.336008,14.44681 c 22.185,7.94575 40.7,14.59862 41.144,14.78415 l 0.807,0.33734 -6.291,54.57778 c -3.459,30.01778 -6.323,54.60531 -6.363,54.63897 -0.121,0.10269 -68.011998,37.85344 -68.884998,38.30384 l -0.816,0.42061 z m 7.723,-35.59853 5.157001,-12.89843 21.947005,-0.0643 21.947998,-0.0643 5.16,12.95961 5.159,12.9596 9.609,0.003 c 9.032,0.003 9.6,-0.0246 9.46,-0.45987 -0.398,-1.24411 -51.114008,-114.84961 -51.307998,-114.93215 -0.175,-0.0747 -51.502005,114.8118 -51.502005,115.27834 0,0.0643 4.322998,0.11683 9.606,0.11683 h 9.605999 z m 12.209002,-29.36874 c 0.140999,-0.51131 14.431004,-34.91473 14.733004,-35.47082 0.15799,-0.29016 15.106998,35.08655 15.100988,35.7354 -10e-4,0.10914 -6.742988,0.19844 -14.981988,0.19844 -14.139005,0 -14.973006,-0.026 -14.852004,-0.46302 z"
       id="path903"
       inkscape:connector-curvature="0" />
  </g>
</svg>
