<?xml version="1.0" encoding="UTF-8" standalone="no"?>
<!-- Created with Inkscape (http://www.inkscape.org/) -->

<svg
   xmlns:dc="http://purl.org/dc/elements/1.1/"
   xmlns:cc="http://creativecommons.org/ns#"
   xmlns:rdf="http://www.w3.org/1999/02/22-rdf-syntax-ns#"
   xmlns:svg="http://www.w3.org/2000/svg"
   xmlns="http://www.w3.org/2000/svg"
   xmlns:sodipodi="http://sodipodi.sourceforge.net/DTD/sodipodi-0.dtd"
   xmlns:inkscape="http://www.inkscape.org/namespaces/inkscape"
   width="168mm"
   height="90mm"
   viewBox="0 0 168 90"
   version="1.1"
   id="svg1827"
   inkscape:version="0.92.5 (2060ec1f9f, 2020-04-08)"
   sodipodi:docname="cat1.svg">
  <defs
     id="defs1821" />
  <sodipodi:namedview
     id="base"
     pagecolor="#ffffff"
     bordercolor="#666666"
     borderopacity="1.0"
     inkscape:pageopacity="0.0"
     inkscape:pageshadow="2"
     inkscape:zoom="0.7"
     inkscape:cx="-27.471618"
     inkscape:cy="392.98695"
     inkscape:document-units="mm"
     inkscape:current-layer="layer1"
     showgrid="false"
     inkscape:window-width="1920"
     inkscape:window-height="1043"
     inkscape:window-x="1366"
     inkscape:window-y="0"
     inkscape:window-maximized="1" />
  <metadata
     id="metadata1824">
    <rdf:RDF>
      <cc:Work
         rdf:about="">
        <dc:format>image/svg+xml</dc:format>
        <dc:type
           rdf:resource="http://purl.org/dc/dcmitype/StillImage" />
        <dc:title></dc:title>
      </cc:Work>
    </rdf:RDF>
  </metadata>
  <g
     inkscape:label="Camada 1"
     inkscape:groupmode="layer"
     id="layer1"
     transform="translate(0,-207)">
    <path
       style="fill:#9b857f;fill-opacity:1;stroke:none;stroke-width:0.26458332px;stroke-linecap:butt;stroke-linejoin:miter;stroke-opacity:1"
       d="m 98.892068,281.82269 0.534339,-6.1463 c -6.7379,-1.61446 -13.715259,-3.89362 -21.265769,-4.75353 -6.96304,-0.50295 -7.998061,0.98526 -9.276461,2.43831 -1.648119,0.86995 -3.011271,2.91252 -3.04019,5.02802 -0.0919,0.97907 0.196091,1.83151 0.467731,2.6894 0.43194,0.46283 0.804061,1.00098 1.64021,0.95481 z"
       id="path7560"
       inkscape:connector-curvature="0"
       sodipodi:nodetypes="cccccccc" />
    <path
       style="fill:#9b857f;fill-opacity:1;stroke:none;stroke-width:0.26458332px;stroke-linecap:butt;stroke-linejoin:miter;stroke-opacity:1"
       d="m 80.385617,271.40558 0.494199,-3.32312 c 2.242971,-9.02938 14.732561,-9.01133 24.448914,-4.11875 -0.23878,4.46732 0.86419,8.81298 2.53221,12.97332 -10.493523,-0.91893 -18.365811,-3.65374 -27.475323,-5.53145 z"
       id="path7563"
       inkscape:connector-curvature="0"
       sodipodi:nodetypes="ccccc" />
    <path
       style="display:inline;fill:#162d50;fill-opacity:1;stroke:none;stroke-width:0.26458332px;stroke-linecap:butt;stroke-linejoin:miter;stroke-opacity:1"
       d="m 32.938577,265.89928 c -7.7971,-10.10306 -9.05177,-29.12762 -13.57765,-43.69143 l 16.81994,-1.60639 53.57812,1.60639 4.12677,12.44671 -36.16025,13.82264 c 0,0 -7.37054,6.3311 -8.22098,6.23661 -0.85045,-0.0945 -12.17725,8.05274 -12.17725,8.05274 z"
       id="path1714"
       inkscape:connector-curvature="0"
       sodipodi:nodetypes="ccccccccc" />
    <path
       style="display:inline;fill:#0b1728;fill-opacity:1;stroke:none;stroke-width:0.26458332px;stroke-linecap:butt;stroke-linejoin:miter;stroke-opacity:1"
       d="m 19.360927,222.20785 16.72544,1.13393 14.740281,53.99358 -17.888071,-11.43608 c -3.58018,-14.36419 -8.81325,-29.16936 -13.57765,-43.69143 z"
       id="path1717"
       inkscape:connector-curvature="0"
       sodipodi:nodetypes="ccccc" />
    <rect
       style="display:inline;fill:#000000;fill-opacity:0;stroke:none;stroke-width:0.66600001;stroke-linejoin:round;stroke-miterlimit:4;stroke-dasharray:none;stroke-opacity:0"
       id="rect1719"
       width="1.9371281"
       height="1.0866816"
       x="26.447954"
       y="233.35815" />
    <rect
       style="display:inline;fill:#dbdbe3;fill-opacity:0;stroke:none;stroke-width:0.66600001;stroke-linejoin:round;stroke-miterlimit:4;stroke-dasharray:none;stroke-opacity:0"
       id="rect1721"
       width="4.3467264"
       height="2.0316219"
       x="25.266802"
       y="230.6651" />
    <path
       style="display:inline;fill:#dbdbe3;fill-opacity:1;stroke:#dbdbe3;stroke-width:0.065;stroke-linecap:butt;stroke-linejoin:round;stroke-miterlimit:4;stroke-dasharray:none;stroke-opacity:1"
       d="m 41.728307,235.76063 0.250049,1.61886 8.192731,-0.44435 2.831041,-0.15354 -0.274931,-1.51741 z"
       id="path1731"
       inkscape:connector-curvature="0"
       sodipodi:nodetypes="cccccc" />
    <path
       style="display:inline;fill:#f48b9a;fill-opacity:1;stroke:#f48b9a;stroke-width:0.0421134;stroke-linecap:butt;stroke-linejoin:round;stroke-miterlimit:4;stroke-dasharray:none;stroke-opacity:1"
       d="m 53.737477,235.08968 0.25881,1.59176 c 1.53212,-0.14762 3.300481,-0.22438 4.832601,-0.37203 l -0.249081,-1.53688 z"
       id="path1731-7"
       inkscape:connector-curvature="0"
       sodipodi:nodetypes="ccccc" />
    <path
       style="display:inline;fill:#31d6ba;fill-opacity:1;stroke:#31d6ba;stroke-width:0.065;stroke-linecap:butt;stroke-linejoin:round;stroke-miterlimit:4;stroke-dasharray:none;stroke-opacity:1"
       d="m 59.207867,234.68033 0.25005,1.61886 8.19273,-0.44435 2.831039,-0.15354 -0.274928,-1.51741 z"
       id="path1731-5"
       inkscape:connector-curvature="0"
       sodipodi:nodetypes="cccccc" />
    <path
       sodipodi:nodetypes="cccccc"
       inkscape:connector-curvature="0"
       id="path1754"
       d="m 75.979328,233.58489 0.25005,1.61886 8.19273,-0.44435 2.831039,-0.15354 -0.274928,-1.51741 z"
       style="display:inline;fill:#1ebcbf;fill-opacity:1;stroke:#1ebcbf;stroke-width:0.065;stroke-linecap:butt;stroke-linejoin:round;stroke-miterlimit:4;stroke-dasharray:none;stroke-opacity:1" />
    <path
       style="display:inline;fill:#fde992;fill-opacity:1;stroke:#fde992;stroke-width:0.04091074;stroke-linecap:butt;stroke-linejoin:round;stroke-miterlimit:4;stroke-dasharray:none;stroke-opacity:1"
       d="m 70.935169,234.10469 0.281508,1.52979 c 1.171811,-0.0851 4.216271,-0.39294 4.216281,-0.39294 l -0.278349,-1.37984 z"
       id="path1764"
       inkscape:connector-curvature="0"
       sodipodi:nodetypes="ccccc" />
    <path
       sodipodi:nodetypes="ccccc"
       inkscape:connector-curvature="0"
       id="path1766"
       d="m 87.780938,232.98493 0.25881,1.59176 c 1.53212,-0.14762 3.300479,-0.22438 4.832599,-0.37203 l -0.249079,-1.53688 z"
       style="display:inline;fill:#d5586a;fill-opacity:1;stroke:#d5586a;stroke-width:0.0421134;stroke-linecap:butt;stroke-linejoin:round;stroke-miterlimit:4;stroke-dasharray:none;stroke-opacity:1" />
    <path
       sodipodi:nodetypes="cccccc"
       inkscape:connector-curvature="0"
       id="path1768"
       d="m 42.803687,239.972 0.25005,1.61886 8.19273,-0.44435 2.831039,-0.15354 -0.274928,-1.51741 z"
       style="display:inline;fill:#31d6ba;fill-opacity:1;stroke:#31d6ba;stroke-width:0.065;stroke-linecap:butt;stroke-linejoin:round;stroke-miterlimit:4;stroke-dasharray:none;stroke-opacity:1" />
    <path
       sodipodi:nodetypes="ccccc"
       inkscape:connector-curvature="0"
       id="path1770"
       d="m 59.887068,238.97225 0.25881,1.59176 c 1.53212,-0.14762 3.300479,-0.22438 4.832599,-0.37203 l -0.249079,-1.53688 z"
       style="display:inline;fill:#f48b9a;fill-opacity:1;stroke:#f48b9a;stroke-width:0.0421134;stroke-linecap:butt;stroke-linejoin:round;stroke-miterlimit:4;stroke-dasharray:none;stroke-opacity:1" />
    <path
       sodipodi:nodetypes="ccccc"
       inkscape:connector-curvature="0"
       id="path1772"
       d="m 55.060068,239.39639 0.281509,1.52979 c 1.17181,-0.0851 4.21627,-0.39294 4.216281,-0.39294 l -0.27835,-1.37984 z"
       style="display:inline;fill:#fde992;fill-opacity:1;stroke:#fde992;stroke-width:0.04091074;stroke-linecap:butt;stroke-linejoin:round;stroke-miterlimit:4;stroke-dasharray:none;stroke-opacity:1" />
    <path
       sodipodi:nodetypes="cccccc"
       inkscape:connector-curvature="0"
       id="path1774"
       d="m 65.355908,238.46809 0.27867,1.61418 8.183581,-0.58933 2.82788,-0.20364 -0.30176,-1.51231 z"
       style="display:inline;fill:#dbdbe3;fill-opacity:1;stroke:#dbdbe3;stroke-width:0.065;stroke-linecap:butt;stroke-linejoin:round;stroke-miterlimit:4;stroke-dasharray:none;stroke-opacity:1" />
    <path
       style="display:inline;fill:#d5586a;fill-opacity:1;stroke:#d5586a;stroke-width:0.0421134;stroke-linecap:butt;stroke-linejoin:round;stroke-miterlimit:4;stroke-dasharray:none;stroke-opacity:1"
       d="m 43.746707,244.32422 0.25881,1.59176 c 1.53212,-0.14761 3.300479,-0.22438 4.832599,-0.37203 l -0.249079,-1.53688 z"
       id="path1776"
       inkscape:connector-curvature="0"
       sodipodi:nodetypes="ccccc" />
    <path
       sodipodi:nodetypes="cccccc"
       inkscape:connector-curvature="0"
       id="path1778"
       d="m 49.646407,243.92509 0.25005,1.61886 8.192731,-0.44435 2.831039,-0.15354 -0.274929,-1.51741 z"
       style="display:inline;fill:#3468b8;fill-opacity:1;stroke:#3468b8;stroke-width:0.065;stroke-linecap:butt;stroke-linejoin:round;stroke-miterlimit:4;stroke-dasharray:none;stroke-opacity:1" />
    <path
       sodipodi:nodetypes="ccccc"
       inkscape:connector-curvature="0"
       id="path1788"
       d="m 61.354088,243.35052 0.281508,1.52979 c 1.171811,-0.0851 4.216271,-0.39294 4.216281,-0.39294 l -0.278349,-1.37984 z"
       style="display:inline;fill:#fde992;fill-opacity:1;stroke:#fde992;stroke-width:0.04091074;stroke-linecap:butt;stroke-linejoin:round;stroke-miterlimit:4;stroke-dasharray:none;stroke-opacity:1" />
    <ellipse
       style="display:inline;fill:#31d6ba;fill-opacity:1;stroke:#31d6ba;stroke-width:0.06108801;stroke-linejoin:round;stroke-miterlimit:4;stroke-dasharray:none;stroke-opacity:1"
       id="path1790"
       cx="-7.4520931"
       cy="228.49493"
       rx="0.79107112"
       ry="0.85240239"
       transform="rotate(-7.9567303)" />
    <ellipse
       transform="rotate(-7.9567303)"
       ry="0.85240239"
       rx="0.79107112"
       cy="228.73315"
       cx="-4.9030209"
       id="ellipse1798"
       style="display:inline;fill:#31d6ba;fill-opacity:1;stroke:#31d6ba;stroke-width:0.06108801;stroke-linejoin:round;stroke-miterlimit:4;stroke-dasharray:none;stroke-opacity:1" />
    <ellipse
       style="display:inline;fill:#31d6ba;fill-opacity:1;stroke:#31d6ba;stroke-width:0.06108801;stroke-linejoin:round;stroke-miterlimit:4;stroke-dasharray:none;stroke-opacity:1"
       id="ellipse1800"
       cx="-2.2702692"
       cy="229.08426"
       rx="0.79107112"
       ry="0.85240239"
       transform="rotate(-7.9567303)" />
    <path
       style="display:inline;fill:#f48b9a;fill-opacity:1;stroke:none;stroke-width:0.26458332px;stroke-linecap:butt;stroke-linejoin:miter;stroke-opacity:1"
       d="m 32.003527,283.29635 c -4.63658,-18.03747 -11.77799,-42.16698 -16.81244,-61.14808 -0.57641,-0.3533 -1.07306,-3.12563 1.39604,-3.13857 24.5955,0.48871 47.216582,-0.0722 73.632762,0.051 2.144339,0.35017 2.922248,2.14946 4.009038,3.55719 1.500311,4.3673 3.351889,8.75655 4.40995,13.0962 l -5.868929,-1.26532 c -0.90963,-3.39536 -1.417439,-7.31944 -2.852769,-10.02309 -3.171921,-1.94697 -7.392472,-1.09803 -11.478062,-1.24974 -18.230911,0.71334 -36.7084,-0.0887 -56.27349,0.35374 -0.93657,0.0371 -1.0729,1.89978 -0.975741,2.39603 1.66727,7.24604 3.758241,14.14946 6.470471,21.30842 3.99089,11.28556 6.07012,22.14156 9.75275,33.07254 z"
       id="path849"
       inkscape:connector-curvature="0"
       sodipodi:nodetypes="cccccccccccccc" />
    <path
       style="display:inline;fill:none;stroke:#000000;stroke-width:0.26499999;stroke-linecap:round;stroke-linejoin:round;stroke-miterlimit:4;stroke-dasharray:none;stroke-opacity:1"
       d="m 32.003527,283.29635 -16.89926,-61.25557 c -0.95673,-3.17636 0.59022,-2.86702 1.48286,-3.03108 23.14531,0.41225 49.465479,-0.10171 69.01257,-0.0547 1.62737,0.004 3.167121,-0.1137 4.533371,0.0809 1.556761,0.26077 2.888811,1.43643 4.009041,3.47451 1.229418,2.57748 2.868419,7.72983 4.3365,12.09722 l -5.708661,-0.15891 c -0.95092,-3.34103 -1.321681,-7.80618 -2.852769,-10.02309 -1.32375,-1.67638 -7.976772,-1.15814 -18.522352,-1.04893 -15.77017,0.16332 -37.63798,0.0322 -49.2292,0.15293 -1.17114,0.18584 -1.016131,2.00067 -1.02948,1.75944 0.0428,3.04923 12.04107,37.61116 16.27696,55.0176 z"
       id="path3227"
       inkscape:connector-curvature="0"
       sodipodi:nodetypes="cccscccccscccc" />
    <path
       style="display:inline;fill:#d5586a;fill-opacity:1;stroke:none;stroke-width:0.26458332px;stroke-linecap:butt;stroke-linejoin:miter;stroke-opacity:1"
       d="m 31.665247,260.51704 c -0.78179,3.00843 -2.31173,6.75555 -3.4738,8.42824 l 3.80174,13.64 2.25014,-0.0134 -2.50367,-1.75636 1.46773,-4.53687 c -0.57804,-5.42717 1.6785,-6.57636 -1.54214,-15.76163 z"
       id="path7622"
       inkscape:connector-curvature="0"
       sodipodi:nodetypes="ccccccc" />
    <path
       style="display:inline;fill:#9b857f;fill-opacity:1;stroke-width:0.26458341"
       d="m 98.965979,234.24735 c 0.107767,0.12037 1.490501,0.38002 3.072721,0.577 6.91221,0.86056 13.13941,2.84831 18.64926,5.95292 3.4239,1.92925 5.80864,3.74664 8.54166,6.50952 4.74378,4.79557 7.17286,9.30681 8.24732,15.31671 0.4561,2.55117 0.47712,4.49181 0.082,7.57251 -0.38029,2.96533 -0.22595,3.70114 1.24549,5.93774 1.07082,1.62765 1.19573,1.97049 1.10259,3.02623 0.14343,0.71234 -0.12771,2.77046 -0.64329,2.9104 0,0 0.019,0.10755 -11.93162,0.007 -8.88371,-0.43184 -16.42073,-0.0965 -16.42073,0.44792 -8.51498,-1.56819 -76.292673,5.93292 -79.083783,-1.47769 -8.12537,-23.45282 49.225752,-37.71178 67.138382,-46.78061 z m -27.883781,47.92062 c 273.082602,103.54159 136.541292,51.7708 0,0 z m 15.98051,-0.22658 11.338251,-0.14208 0.547999,-2.10688 c 0.36662,-1.57035 0.51752,-3.99543 -0.33629,-4.24899 -2.549959,-0.75718 -14.896809,-3.53298 -17.493891,-3.97639 -5.9305,-1.18131 -11.61275,0.0252 -13.256511,2.88857 -2.064988,1.21373 -2.860008,5.32021 -0.984319,7.26482 0.473869,0.49129 3.472479,1.72877 20.184761,0.32095 z m -18.896002,-3.48453 c -0.42858,-1.11681 0.0516,-2.55515 0.67913,-2.03436 0.297172,0.24665 0.39166,1.0683 0.251672,2.1883 -0.0527,0.42195 -0.754362,0.30591 -0.930802,-0.15394 z m -35.920699,-1.02148 c 0,0 0.0783,-0.18491 0.50238,-0.58108 0.18317,-0.20319 0.49566,-0.36326 0.50241,-0.62525 l -0.21615,-0.47793 c -0.45664,-0.72122 -0.71631,-1.5108 -1.18042,-1.26242 -2.31613,-5.16708 -0.1334,3.87819 -0.1334,3.87819 0,0 0.26349,-1.25989 0.52518,-0.93151 z m 75.447593,-0.92562 c 0,-0.13693 -0.13386,-0.3317 -0.29747,-0.43283 -0.22578,-0.33982 -1.30629,-3.47659 -1.75504,-5.39238 -0.22748,-0.97935 -0.42625,-2.81252 -0.48212,-4.19496 -0.0559,-1.38246 0.0598,-2.26171 0.0548,-2.35814 -0.0136,-0.26707 -3.99296,-1.82949 -6.516035,-2.47297 -2.839119,-0.72408 -6.605497,-0.94829 -8.790857,-0.52334 -3.2331,0.62869 -6.726532,2.84404 -8.112202,5.14437 -0.2848,0.47279 -0.974439,1.50569 -1.053489,2.49495 -0.0756,0.94588 -0.0876,2.00585 -0.23482,2.23784 -0.265139,0.4177 0.233428,0.47781 0.61238,0.45475 0.25763,-0.0157 4.1577,0.75965 8.615231,1.84981 7.281539,1.78082 12.715042,2.97043 16.107512,3.25097 0.65484,0.0541 1.33945,0.11924 1.52134,0.14468 0.18192,0.0254 0.33074,-0.0658 0.33074,-0.20275 z m -77.258333,-7.06292 c 0,-0.35239 0.45432,-1.30574 0.79375,-2.21311 0.34316,-0.91735 0.81393,-2.55851 1.05833,-2.55883 0.13782,-1.8e-4 -0.931,-0.35102 -1.87689,-0.66579 -0.99262,-0.33033 -1.64878,-0.18719 -1.64878,-0.3948 0.15829,-0.19153 0.0461,0.006 1.64878,0.3948 2.27509,0.98823 2.2567,0.0143 2.6936,-0.67225 0.15096,-0.39704 0.56869,-1.30768 0.9283,-2.02364 l 0.65382,-1.30173 -0.67351,-0.97187 c -0.37044,-0.53455 -0.98467,-2.15399 -1.36495,-3.59879 -1.69568,-6.44208 -0.39917,-11.62931 2.60428,-10.41965 0.94456,0.38043 5.5165,4.87288 6.852841,6.7337 l 0.823968,1.14735 1.09542,-0.42236 c 0.743752,-0.28675 2.008521,-0.42836 3.93968,-0.44102 1.564362,-0.0103 2.844282,-0.0977 2.844282,-0.19421 0,-0.0965 0.7352,-1.16809 1.63378,-2.38125 1.98337,-2.6777 4.49203,-4.93067 5.398479,-5.15817 0.854541,-0.21447 1.74298,0.21652 2.31842,1.34808 0.239831,0.47155 0.3889,1.07271 0.431321,1.12151 0.0424,0.0488 1.143399,-0.76868 2.26083,-1.54508 4.361098,-3.03014 5.143198,-3.50111 8.74635,-5.26686 5.61105,-3.48556 17.088009,-6.03754 18.35109,-5.47445 1.377069,-0.15731 2.527591,-0.11182 2.546641,-0.14145 l 1.31926,-0.12205 c 1.856269,-0.25122 3.463428,0.0215 5.15162,0.0224 -11.245443,6.60235 -63.837712,61.82001 -68.633642,36.51383 -0.023,0 0.002,-0.46295 0.002,-0.46295 0,0 0.0937,-0.4743 0.10116,-0.8514 z m -6.2836,-3.93287 c 304.385223,114.78457 152.192593,57.39226 0,0 z"
       id="path1696"
       inkscape:connector-curvature="0"
       sodipodi:nodetypes="cssssccccccccccccsccscccccccccccccccccccccssccscccccsccccccccccsscccccsccccccccccccc" />
    <path
       style="display:inline;fill:#725e57;fill-opacity:1;stroke:none;stroke-width:0.26458332px;stroke-linecap:butt;stroke-linejoin:miter;stroke-opacity:1"
       d="m 80.385617,271.40558 c 14.61615,-3.77447 18.300351,9.53324 24.943113,-7.44187 -0.23878,4.46732 0.86419,8.81298 2.53221,12.97332 -10.493523,-0.91893 -18.365811,-3.65374 -27.475323,-5.53145 z"
       id="path7563-3"
       inkscape:connector-curvature="0"
       sodipodi:nodetypes="cccc" />
    <path
       style="display:inline;fill:none;stroke:#000000;stroke-width:0.26499999;stroke-linecap:round;stroke-linejoin:round;stroke-miterlimit:4;stroke-dasharray:none;stroke-opacity:1"
       d="m 114.76491,250.60272 c -4.53259,2.15677 -9.02025,7.04642 -9.52499,14.22134 -0.40481,4.30874 1.08184,8.04722 2.62103,12.11297 v 0"
       id="path3443"
       inkscape:connector-curvature="0"
       sodipodi:nodetypes="cccc" />
    <path
       style="display:inline;fill:none;stroke:#000000;stroke-width:0.26458332px;stroke-linecap:round;stroke-linejoin:round;stroke-opacity:1"
       d="m 136.65918,275.34125 c -0.75762,0.92128 -1.55881,1.8258 -3.43958,2.3151 -10.91064,2.03447 -23.0099,-0.52477 -33.238272,-1.78589 -10.097619,-2.89611 -20.78732,-5.04281 -24.830421,-4.66849 -4.548021,-0.0161 -6.812229,2.12881 -8.678299,4.67583 -0.877641,1.3302 -1.094052,3.29185 -0.188452,5.12517 0.188172,0.38053 0.379272,0.74543 1.17666,1.00703 v 0"
       id="path3445"
       inkscape:connector-curvature="0"
       sodipodi:nodetypes="cccccccc" />
    <path
       style="display:inline;fill:none;stroke:#000000;stroke-width:0.26458332px;stroke-linecap:round;stroke-linejoin:round;stroke-opacity:1"
       d="m 66.528068,281.57549 c -2.553952,2.29701 -2.894301,-2.41665 -2.645662,-2.82658 1.106252,4.62285 -3.44982,4.27814 -2.128009,0.78428 -0.2119,4.09991 -4.608359,3.03399 -2.060869,-0.68902"
       id="path3451"
       inkscape:connector-curvature="0"
       sodipodi:nodetypes="cccc" />
    <path
       style="display:inline;fill:none;stroke:#000000;stroke-width:0.26499999;stroke-linecap:round;stroke-linejoin:round;stroke-miterlimit:4;stroke-dasharray:none;stroke-opacity:1"
       d="m 59.693528,278.84416 c 4.34811,-5.08923 5.453589,-9.14081 5.141331,-12.73872 -0.0522,-0.59048 -4.478251,-4.55392 -4.583671,-6.75857 1.672468,-11.79937 -0.0583,-14.51727 -1.532131,-15.0997 -0.882171,-0.56323 -7.388791,3.9001 -8.357841,9.2926"
       id="path3453"
       inkscape:connector-curvature="0"
       sodipodi:nodetypes="ccccc" />
    <path
       style="display:inline;fill:none;stroke:#000000;stroke-width:0.26458332px;stroke-linecap:round;stroke-linejoin:round;stroke-opacity:1"
       d="m 43.692867,254.36056 c -1.64043,-3.68249 -7.18168,-9.00653 -8.29895,-9.11012 -5.06825,-2.10384 -4.26864,9.6079 -0.70774,14.76105"
       id="path3455"
       inkscape:connector-curvature="0"
       sodipodi:nodetypes="ccc" />
    <path
       style="display:inline;fill:#000000;fill-opacity:1;stroke:#000000;stroke-width:0.26458332px;stroke-linecap:round;stroke-linejoin:round;stroke-opacity:1"
       d="m 39.646767,265.97273 c 1.77819,0.15987 2.998181,0.17986 4.54322,-0.40794 0.703919,0.039 0.862899,1.17337 0.743159,2.02514 -0.197829,0.68991 -1.693799,1.87869 -2.233369,2.02291 -0.229089,0.0612 -1.387369,0.12461 -1.90596,-0.15202 -1.37299,-0.79122 -2.38753,-1.67623 -2.46724,-2.37368 -0.14258,-0.34467 0.65285,-1.13189 1.32019,-1.11441 z"
       id="path7237"
       inkscape:connector-curvature="0"
       sodipodi:nodetypes="cccsccc" />
    <path
       style="display:inline;fill:none;stroke:#000000;stroke-width:0.26458332px;stroke-linecap:round;stroke-linejoin:miter;stroke-opacity:1"
       d="m 49.003687,265.45155 c 2.086901,-1.0999 3.98749,-1.8272 5.576221,-1.93078"
       id="path7243"
       inkscape:connector-curvature="0"
       sodipodi:nodetypes="cc" />
    <path
       style="display:inline;fill:none;stroke:#000000;stroke-width:0.26458332px;stroke-linecap:round;stroke-linejoin:miter;stroke-opacity:1"
       d="m 50.362288,267.70576 c 3.016178,-0.69313 6.245968,-1.55203 9.4561,-0.77061"
       id="path7245"
       inkscape:connector-curvature="0"
       sodipodi:nodetypes="cc" />
    <path
       style="display:inline;fill:none;stroke:#000000;stroke-width:0.26458332px;stroke-linecap:round;stroke-linejoin:miter;stroke-opacity:1"
       d="m 50.370416,270.95755 c 2.522662,-0.22996 4.897832,0.31153 7.015821,2.19828"
       id="path7247"
       inkscape:connector-curvature="0"
       sodipodi:nodetypes="cc" />
    <path
       style="display:inline;fill:none;stroke:#000000;stroke-width:0.26499999;stroke-linecap:round;stroke-linejoin:round;stroke-miterlimit:4;stroke-dasharray:none;stroke-opacity:1"
       d="m 41.928046,269.71808 c -0.15321,1.1691 -0.01889,2.21479 0.0841,2.93701"
       id="path7251"
       inkscape:connector-curvature="0"
       sodipodi:nodetypes="cc" />
    <path
       style="display:inline;fill:none;stroke:#000000;stroke-width:0.26458332px;stroke-linecap:round;stroke-linejoin:round;stroke-opacity:1"
       d="m 52.848697,254.36296 c -1.317689,-3.35162 4.39393,-9.19131 5.24906,-8.56625 0.96121,0.16358 2.425221,6.32511 0.45779,7.20032"
       id="path7253"
       inkscape:connector-curvature="0"
       sodipodi:nodetypes="ccc" />
    <path
       style="display:inline;fill:none;stroke:#000000;stroke-width:0.26499999;stroke-linecap:round;stroke-linejoin:round;stroke-miterlimit:4;stroke-dasharray:none;stroke-opacity:1"
       d="m 36.205557,259.22253 c -2.02016,-0.53576 -4.74999,-11.79076 -2.70207,-12.57526 2.35981,-0.67418 10.457929,6.85863 7.961001,8.8864"
       id="path7255"
       inkscape:connector-curvature="0"
       sodipodi:nodetypes="ccc" />
    <path
       style="display:inline;fill:none;stroke:#000000;stroke-width:0.26499999;stroke-linecap:round;stroke-linejoin:round;stroke-miterlimit:4;stroke-dasharray:none;stroke-opacity:1"
       d="m 49.941346,272.82048 c -0.0531,4.06488 -7.897309,2.64674 -7.929239,-0.16539 -1.48708,3.30463 -5.74363,2.30159 -4.82038,0.41342"
       id="path7305"
       inkscape:connector-curvature="0"
       sodipodi:nodetypes="ccc" />
    <path
       style="display:inline;fill:#725e57;fill-opacity:1;stroke:none;stroke-width:0.26458332px;stroke-linecap:butt;stroke-linejoin:miter;stroke-opacity:1"
       d="m 52.935517,254.23687 c -0.119031,-0.53542 -0.45221,-1.25558 0.43489,-3.29043 1.832041,-3.62182 4.303969,-5.20683 4.57852,-5.03397 -0.707279,3.15301 -2.568679,5.85316 -5.01341,8.3244 z"
       id="path7599"
       inkscape:connector-curvature="0"
       sodipodi:nodetypes="cccc" />
    <path
       style="display:inline;fill:none;stroke:#000000;stroke-width:0.26458332px;stroke-linecap:round;stroke-linejoin:miter;stroke-opacity:1"
       d="m 47.939276,260.69881 c 1.419392,1.16909 3.930722,1.08504 4.784371,-0.93409 v 0 l 0.009,0.003"
       id="path7233"
       inkscape:connector-curvature="0"
       sodipodi:nodetypes="cccc" />
    <path
       style="display:inline;fill:none;stroke:#000000;stroke-width:0.26499999;stroke-linecap:round;stroke-linejoin:round;stroke-miterlimit:4;stroke-dasharray:none;stroke-opacity:1"
       d="m 41.144366,262.35522 c -1.464069,1.25661 -2.874049,1.71136 -4.560039,-0.41302"
       id="path7235"
       inkscape:connector-curvature="0"
       sodipodi:nodetypes="cc" />
    <path
       style="display:inline;fill:none;stroke:#000000;stroke-width:0.26458332px;stroke-linecap:round;stroke-linejoin:miter;stroke-opacity:1"
       d="m 35.871037,266.46742 c -2.11272,-1.60655 -4.55849,-2.36383 -7.10936,-2.85311"
       id="path7239"
       inkscape:connector-curvature="0"
       sodipodi:nodetypes="cc" />
    <path
       style="display:inline;fill:none;stroke:#000000;stroke-width:0.26458332px;stroke-linecap:round;stroke-linejoin:miter;stroke-opacity:1"
       d="m 36.291987,268.47861 c -2.46399,0.78785 -4.958,1.48063 -7.29645,2.66603"
       id="path7241"
       inkscape:connector-curvature="0"
       sodipodi:nodetypes="cc" />
    <path
       style="display:inline;fill:none;stroke:#000000;stroke-width:0.26458332px;stroke-linecap:round;stroke-linejoin:miter;stroke-opacity:1"
       d="m 36.385537,270.63012 c -1.92356,1.11743 -3.60882,2.6519 -5.18065,4.38486"
       id="path7249"
       inkscape:connector-curvature="0"
       sodipodi:nodetypes="cc" />
    <path
       style="display:inline;fill:none;stroke:#000000;stroke-width:0.26458332px;stroke-linecap:round;stroke-linejoin:round;stroke-opacity:1"
       d="m 33.207387,276.27867 c -1.99689,-2.08206 -2.58088,-4.07325 -2.87304,-5.98047 1.02044,-4.04024 1.38869,-4.17104 2.21064,-6.06015 0.70693,-1.40885 1.40494,-2.8177 2.1412,-4.22656"
       id="path7317"
       inkscape:connector-curvature="0"
       sodipodi:nodetypes="cccc" />
    <path
       style="display:inline;fill:#725e57;fill-opacity:1;stroke:none;stroke-width:0.26458332px;stroke-linecap:butt;stroke-linejoin:miter;stroke-opacity:1"
       d="m 34.197397,248.38754 c -0.70675,0.8171 1.64848,11.13302 2.00816,10.83499 -1.62435,-0.59363 -4.91281,-11.70826 -2.64626,-12.45123 1.38849,-0.30502 3.9627,1.75473 4.53303,2.34602 -1.39702,0.0506 -4.01949,-1.52646 -3.89493,-0.72978 z"
       id="path7601"
       inkscape:connector-curvature="0"
       sodipodi:nodetypes="ccccc" />
    <a
       style="display:inline"
       transform="translate(546.41542,45.323217)"
       id="a3504">
      <path
         sodipodi:nodetypes="cccccccccc"
         inkscape:connector-curvature="0"
         id="path851"
         d="m -513.51775,237.19907 c 18.11264,0.5181 38.37249,-1.08844 54.51198,-0.45706 l 8.41919,-0.16127 c 5.00475,0.18288 13.84267,-0.79791 14.76711,0.62366 0.87514,0.15369 1.12062,1.63381 1.4358,2.96711 -0.78692,2.06751 -2.20678,2.89423 -3.93404,3.11831 l -74.05747,0.0105 c -1.67804,-0.9811 -2.32757,-2.06678 -2.42292,-3.60123 0.1468,-1.18089 0.0722,-2.37024 1.28035,-2.49997 z"
         style="fill:#f48b9a;fill-opacity:1;stroke:none;stroke-width:0.22225605px;stroke-linecap:butt;stroke-linejoin:miter;stroke-opacity:1" />
    </a>
    <path
       style="display:inline;fill:#d5586a;fill-opacity:1;stroke:none;stroke-width:0.26458332px;stroke-linecap:butt;stroke-linejoin:miter;stroke-opacity:1"
       d="m 109.53538,288.56674 30.68453,-0.0232 c 1.5402,-0.16497 2.61527,-0.44441 3.28353,-1.0388 2.08746,-1.16767 1.86229,-4.08386 0.0214,-5.17013 -9.48385,-0.47928 -22.79856,-0.66787 -33.76277,-0.39953 1.11865,0.67958 1.86062,1.58374 2.05336,3.5596 -0.47756,1.35603 -1.1804,2.30742 -2.28006,3.07202 z"
       id="path1694"
       inkscape:connector-curvature="0"
       sodipodi:nodetypes="ccccccc" />
    <path
       style="display:inline;fill:none;stroke:#000000;stroke-width:0.26458332px;stroke-linecap:butt;stroke-linejoin:round;stroke-opacity:1"
       d="m 32.897657,282.52227 c 36.875142,-0.24062 74.026233,-1.24101 110.469293,-0.26394 0.93551,0.30525 1.85594,2.08834 1.68512,3.04365 -0.86343,2.68405 -2.82785,3.14906 -4.87895,3.20036 l -106.132873,0.12114 c -1.5345,-0.51789 -2.41792,-2.34537 -2.42294,-3.60161 -0.0787,-1.50711 0.31973,-2.37818 1.28035,-2.4996 z"
       id="path3219"
       inkscape:connector-curvature="0"
       sodipodi:nodetypes="ccccccc" />
    <path
       style="display:inline;fill:none;stroke:#000000;stroke-width:0.26499999;stroke-linecap:round;stroke-linejoin:round;stroke-miterlimit:4;stroke-dasharray:none;stroke-opacity:1"
       d="m 108.83321,288.54682 c 3.18615,-0.37564 4.65451,-6.17555 -0.17777,-6.68487 v 0"
       id="path3265"
       inkscape:connector-curvature="0"
       sodipodi:nodetypes="ccc" />
    <path
       style="display:inline;fill:#000000;fill-opacity:1;stroke:#000000;stroke-width:0.26499999;stroke-linecap:butt;stroke-linejoin:round;stroke-miterlimit:4;stroke-dasharray:none;stroke-opacity:1"
       d="m 37.644457,286.75309 c 0.55672,-0.0386 0.77308,-2.36755 0.15201,-2.53741 -1.08642,-0.0699 -2.10775,-0.21781 -3.41438,-0.0234 -1.06193,0.41323 -0.68172,1.31739 -0.31452,2.2171 0.24188,0.46345 2.18861,0.60687 3.57689,0.34371 z"
       id="path3267"
       inkscape:connector-curvature="0"
       sodipodi:nodetypes="ccccc" />
    <path
       style="display:inline;fill:#cf3e53;fill-opacity:1;stroke:#000000;stroke-width:0.26499999;stroke-linecap:butt;stroke-linejoin:round;stroke-miterlimit:4;stroke-dasharray:none;stroke-opacity:1"
       d="m 43.292187,286.2035 c 1.06249,0.62528 16.01047,0.87669 16.52228,0.56128 1.61658,-0.28986 1.22787,-1.73267 -0.0819,-2.13983 -4.396042,-0.20449 -11.20339,-0.73662 -15.902541,0.0468 -0.397489,-0.0448 -1.364279,0.9842 -0.53785,1.53176 z"
       id="path3269"
       inkscape:connector-curvature="0"
       sodipodi:nodetypes="cccccc" />
    <path
       style="display:inline;fill:#cf3e53;fill-opacity:1;stroke:#000000;stroke-width:0.26458332px;stroke-linecap:butt;stroke-linejoin:miter;stroke-opacity:1"
       d="m 75.069887,286.70714 c -1.03604,0.60383 -2.792961,0.53394 -5.721409,0.0515 -0.784852,-0.49053 -0.899911,-1.91515 0.264369,-2.10205 1.766912,-0.26577 3.379132,-0.0933 4.960941,0.16535 0.633978,0.1598 1.195451,1.08696 0.496099,1.88521 z"
       id="path3271"
       inkscape:connector-curvature="0"
       sodipodi:nodetypes="ccccc" />
    <path
       style="display:inline;fill:#cf3e53;fill-opacity:1;stroke:#000000;stroke-width:0.26499999;stroke-linecap:butt;stroke-linejoin:round;stroke-miterlimit:4;stroke-dasharray:none;stroke-opacity:1"
       d="m 88.977037,286.15728 c -0.875008,1.15144 -2.151589,-0.17168 -1.785919,-0.7772 0.569389,-1.42067 2.652229,-0.63831 1.785919,0.7772 z"
       id="path3273"
       inkscape:connector-curvature="0"
       sodipodi:nodetypes="ccc" />
    <path
       style="display:inline;fill:none;stroke:#000000;stroke-width:0.26499999;stroke-linecap:round;stroke-linejoin:round;stroke-miterlimit:4;stroke-dasharray:none;stroke-opacity:1"
       d="m 75.672726,257.86222 c 0.465072,-0.19408 4.54982,5.15497 4.960941,7.98711 0.215622,1.86827 0.0824,3.28863 -0.24805,5.55625"
       id="path3447"
       inkscape:connector-curvature="0"
       sodipodi:nodetypes="ccc" />
    <path
       style="display:inline;fill:none;stroke:#000000;stroke-width:0.26458332px;stroke-linecap:butt;stroke-linejoin:miter;stroke-opacity:1"
       d="m 59.189767,279.95252 c -0.90388,1.80212 -2.60526,1.93139 -4.209489,2.36201"
       id="path7313"
       inkscape:connector-curvature="0"
       sodipodi:nodetypes="cc" />
    <path
       style="display:inline;fill:#725e57;fill-opacity:1;stroke:none;stroke-width:0.26458332px;stroke-linecap:butt;stroke-linejoin:miter;stroke-opacity:1"
       d="m 33.209447,276.59286 c 0.66718,0.78698 1.34211,2.62971 6.01385,5.74963 -7.67132,-0.0824 -7.78921,-4.08813 -6.01385,-5.74963 z"
       id="path7563-3-5"
       inkscape:connector-curvature="0"
       sodipodi:nodetypes="ccc" />
    <path
       style="display:inline;fill:none;stroke:#000000;stroke-width:0.26458332px;stroke-linecap:butt;stroke-linejoin:miter;stroke-opacity:1"
       d="m 33.207387,276.27867 c 2.59181,4.24903 5.7629,6.0883 6.93368,6.15478"
       id="path7319"
       inkscape:connector-curvature="0"
       sodipodi:nodetypes="cc" />
    <path
       style="display:inline;fill:none;stroke:#000000;stroke-width:0.26499999;stroke-linecap:round;stroke-linejoin:round;stroke-miterlimit:4;stroke-dasharray:none;stroke-opacity:1"
       d="m 35.036607,282.53339 c -1.29124,0.0122 -2.35303,-0.43397 -2.77039,-0.8974 -1.49576,-1.47564 0.003,-4.3967 0.95977,-5.25811"
       id="path3225"
       inkscape:connector-curvature="0"
       sodipodi:nodetypes="ccc" />
    <path
       style="display:inline;fill:none;stroke:#000000;stroke-width:0.26499999;stroke-linecap:round;stroke-linejoin:round;stroke-miterlimit:4;stroke-dasharray:none;stroke-opacity:1"
       d="m 42.928806,252.90223 c 2.432841,-1.30755 5.19217,-0.33828 7.78851,-0.99241"
       id="path7705"
       inkscape:connector-curvature="0"
       sodipodi:nodetypes="cc" />
    <path
       style="display:inline;fill:none;stroke:#000000;stroke-width:0.26458332px;stroke-linecap:round;stroke-linejoin:round;stroke-opacity:1"
       d="m 60.535348,246.85889 c 18.673889,-14.55991 33.95939,-13.76533 47.596742,-10.97402 15.29282,3.73049 30.00386,15.80765 29.62409,30.71772 -0.036,2.17881 -0.29832,6.47028 -0.29832,6.47028 -0.13276,0.9063 2.21447,3.96617 2.46086,5.36553 0.14751,0.88759 0.32098,1.75273 -0.655,3.61198 v 0 0"
       id="path7707"
       inkscape:connector-curvature="0"
       sodipodi:nodetypes="cccccccc" />
  </g>
</svg>
