<?xml version="1.0" encoding="UTF-8" standalone="no"?>
<!-- Created with Inkscape (http://www.inkscape.org/) -->

<svg
   xmlns:dc="http://purl.org/dc/elements/1.1/"
   xmlns:cc="http://creativecommons.org/ns#"
   xmlns:rdf="http://www.w3.org/1999/02/22-rdf-syntax-ns#"
   xmlns:svg="http://www.w3.org/2000/svg"
   xmlns="http://www.w3.org/2000/svg"
   xmlns:sodipodi="http://sodipodi.sourceforge.net/DTD/sodipodi-0.dtd"
   xmlns:inkscape="http://www.inkscape.org/namespaces/inkscape"
   width="164mm"
   height="89mm"
   viewBox="0 0 164 89"
   version="1.1"
   id="svg8194"
   inkscape:version="0.92.5 (2060ec1f9f, 2020-04-08)"
   sodipodi:docname="cat2.svg">
  <defs
     id="defs8188" />
  <sodipodi:namedview
     id="base"
     pagecolor="#ffffff"
     bordercolor="#666666"
     borderopacity="1.0"
     inkscape:pageopacity="0.0"
     inkscape:pageshadow="2"
     inkscape:zoom="0.35"
     inkscape:cx="-130"
     inkscape:cy="560"
     inkscape:document-units="mm"
     inkscape:current-layer="layer1"
     showgrid="false"
     inkscape:window-width="1920"
     inkscape:window-height="1043"
     inkscape:window-x="1366"
     inkscape:window-y="0"
     inkscape:window-maximized="1" />
  <metadata
     id="metadata8191">
    <rdf:RDF>
      <cc:Work
         rdf:about="">
        <dc:format>image/svg+xml</dc:format>
        <dc:type
           rdf:resource="http://purl.org/dc/dcmitype/StillImage" />
        <dc:title></dc:title>
      </cc:Work>
    </rdf:RDF>
  </metadata>
  <g
     inkscape:label="Camada 1"
     inkscape:groupmode="layer"
     id="layer1"
     transform="translate(0,-208)">
    <path
       style="fill:#9b857f;fill-opacity:1;stroke:none;stroke-width:0.26458332px;stroke-linecap:butt;stroke-linejoin:miter;stroke-opacity:1"
       d="m 104.71123,279.55482 0.53434,-6.1463 c -6.737898,-1.61446 -13.715258,-3.89363 -21.265768,-4.75353 -6.963039,-0.50295 -7.998061,0.98526 -9.276459,2.43831 -1.648122,0.86995 -3.011271,2.91252 -3.040192,5.02802 -0.0919,0.97907 0.19609,1.8315 0.46773,2.6894 0.43194,0.46283 0.804061,1.00097 1.64021,0.9548 z"
       id="path7560"
       inkscape:connector-curvature="0"
       sodipodi:nodetypes="cccccccc" />
    <path
       style="fill:#9b857f;fill-opacity:1;stroke:none;stroke-width:0.26458332px;stroke-linecap:butt;stroke-linejoin:miter;stroke-opacity:1"
       d="m 86.204784,269.1377 0.494199,-3.32311 c 2.242971,-9.02938 14.732557,-9.01133 24.448907,-4.11875 -0.23878,4.46732 0.86419,8.81298 2.53221,12.97332 -10.49352,-0.91893 -18.365807,-3.65374 -27.475316,-5.53146 z"
       id="path7563"
       inkscape:connector-curvature="0"
       sodipodi:nodetypes="ccccc" />
    <path
       style="display:inline;fill:#162d50;fill-opacity:1;stroke:none;stroke-width:0.26458332px;stroke-linecap:butt;stroke-linejoin:miter;stroke-opacity:1"
       d="M 38.757742,263.63141 C 30.960641,253.52835 29.705971,234.5038 25.180091,219.93999 l 16.81994,-1.60639 53.578123,1.60639 4.126769,12.44671 -36.160253,13.82264 c 0,0 -7.370537,6.3311 -8.22098,6.23661 -0.85045,-0.0945 -12.177249,8.05273 -12.177249,8.05273 z"
       id="path1714"
       inkscape:connector-curvature="0"
       sodipodi:nodetypes="ccccccccc" />
    <path
       style="display:inline;fill:#0b1728;fill-opacity:1;stroke:none;stroke-width:0.26458332px;stroke-linecap:butt;stroke-linejoin:miter;stroke-opacity:1"
       d="m 25.180091,219.93999 16.725441,1.13393 14.740279,53.99357 -17.888069,-11.43608 C 35.177561,249.26723 29.944491,234.46206 25.180091,219.93999 Z"
       id="path1717"
       inkscape:connector-curvature="0"
       sodipodi:nodetypes="ccccc" />
    <rect
       style="display:inline;fill:#000000;fill-opacity:0;stroke:none;stroke-width:0.66600001;stroke-linejoin:round;stroke-miterlimit:4;stroke-dasharray:none;stroke-opacity:0"
       id="rect1719"
       width="1.9371281"
       height="1.0866816"
       x="32.267117"
       y="231.09029" />
    <rect
       style="display:inline;fill:#dbdbe3;fill-opacity:0;stroke:none;stroke-width:0.66600001;stroke-linejoin:round;stroke-miterlimit:4;stroke-dasharray:none;stroke-opacity:0"
       id="rect1721"
       width="4.3467264"
       height="2.0316219"
       x="31.085966"
       y="228.39723" />
    <path
       style="display:inline;fill:#dbdbe3;fill-opacity:1;stroke:#dbdbe3;stroke-width:0.065;stroke-linecap:butt;stroke-linejoin:round;stroke-miterlimit:4;stroke-dasharray:none;stroke-opacity:1"
       d="m 47.547473,233.49277 0.250049,1.61886 8.192731,-0.44435 2.831039,-0.15354 -0.274932,-1.51741 z"
       id="path1731"
       inkscape:connector-curvature="0"
       sodipodi:nodetypes="cccccc" />
    <path
       style="display:inline;fill:#f48b9a;fill-opacity:1;stroke:#f48b9a;stroke-width:0.0421134;stroke-linecap:butt;stroke-linejoin:round;stroke-miterlimit:4;stroke-dasharray:none;stroke-opacity:1"
       d="m 59.556643,232.82182 0.258807,1.59176 c 1.53212,-0.14762 3.300482,-0.22438 4.832602,-0.37203 l -0.249079,-1.53688 z"
       id="path1731-7"
       inkscape:connector-curvature="0"
       sodipodi:nodetypes="ccccc" />
    <path
       style="display:inline;fill:#31d6ba;fill-opacity:1;stroke:#31d6ba;stroke-width:0.065;stroke-linecap:butt;stroke-linejoin:round;stroke-miterlimit:4;stroke-dasharray:none;stroke-opacity:1"
       d="m 65.027033,232.41247 0.25005,1.61886 8.19273,-0.44435 2.83104,-0.15354 -0.274932,-1.51741 z"
       id="path1731-5"
       inkscape:connector-curvature="0"
       sodipodi:nodetypes="cccccc" />
    <path
       sodipodi:nodetypes="cccccc"
       inkscape:connector-curvature="0"
       id="path1754"
       d="m 81.798492,231.31703 0.25005,1.61886 8.192731,-0.44435 2.831041,-0.15354 -0.274931,-1.51741 z"
       style="display:inline;fill:#1ebcbf;fill-opacity:1;stroke:#1ebcbf;stroke-width:0.065;stroke-linecap:butt;stroke-linejoin:round;stroke-miterlimit:4;stroke-dasharray:none;stroke-opacity:1" />
    <path
       style="display:inline;fill:#fde992;fill-opacity:1;stroke:#fde992;stroke-width:0.04091074;stroke-linecap:butt;stroke-linejoin:round;stroke-miterlimit:4;stroke-dasharray:none;stroke-opacity:1"
       d="m 76.754333,231.83683 0.281509,1.52979 c 1.17181,-0.0851 4.21627,-0.39294 4.216281,-0.39294 l -0.27835,-1.37984 z"
       id="path1764"
       inkscape:connector-curvature="0"
       sodipodi:nodetypes="ccccc" />
    <path
       sodipodi:nodetypes="ccccc"
       inkscape:connector-curvature="0"
       id="path1766"
       d="m 93.600102,230.71707 0.258811,1.59176 c 1.53212,-0.14762 3.30048,-0.22438 4.8326,-0.37203 l -0.249082,-1.53688 z"
       style="display:inline;fill:#d5586a;fill-opacity:1;stroke:#d5586a;stroke-width:0.0421134;stroke-linecap:butt;stroke-linejoin:round;stroke-miterlimit:4;stroke-dasharray:none;stroke-opacity:1" />
    <path
       sodipodi:nodetypes="cccccc"
       inkscape:connector-curvature="0"
       id="path1768"
       d="m 48.62285,237.70414 0.250053,1.61886 8.192727,-0.44435 2.831042,-0.15354 -0.274931,-1.51741 z"
       style="display:inline;fill:#31d6ba;fill-opacity:1;stroke:#31d6ba;stroke-width:0.065;stroke-linecap:butt;stroke-linejoin:round;stroke-miterlimit:4;stroke-dasharray:none;stroke-opacity:1" />
    <path
       sodipodi:nodetypes="ccccc"
       inkscape:connector-curvature="0"
       id="path1770"
       d="m 65.706232,236.70439 0.25881,1.59176 c 1.53212,-0.14762 3.300481,-0.22438 4.832601,-0.37203 l -0.249081,-1.53688 z"
       style="display:inline;fill:#f48b9a;fill-opacity:1;stroke:#f48b9a;stroke-width:0.0421134;stroke-linecap:butt;stroke-linejoin:round;stroke-miterlimit:4;stroke-dasharray:none;stroke-opacity:1" />
    <path
       sodipodi:nodetypes="ccccc"
       inkscape:connector-curvature="0"
       id="path1772"
       d="m 60.879231,237.12853 0.281512,1.52979 c 1.171808,-0.0851 4.216267,-0.39294 4.216278,-0.39294 l -0.27835,-1.37984 z"
       style="display:inline;fill:#fde992;fill-opacity:1;stroke:#fde992;stroke-width:0.04091074;stroke-linecap:butt;stroke-linejoin:round;stroke-miterlimit:4;stroke-dasharray:none;stroke-opacity:1" />
    <path
       sodipodi:nodetypes="cccccc"
       inkscape:connector-curvature="0"
       id="path1774"
       d="m 71.175071,236.20023 0.27867,1.61418 8.183582,-0.58933 2.82788,-0.20364 -0.30176,-1.51231 z"
       style="display:inline;fill:#dbdbe3;fill-opacity:1;stroke:#dbdbe3;stroke-width:0.065;stroke-linecap:butt;stroke-linejoin:round;stroke-miterlimit:4;stroke-dasharray:none;stroke-opacity:1" />
    <path
       style="display:inline;fill:#d5586a;fill-opacity:1;stroke:#d5586a;stroke-width:0.0421134;stroke-linecap:butt;stroke-linejoin:round;stroke-miterlimit:4;stroke-dasharray:none;stroke-opacity:1"
       d="m 49.56587,242.05636 0.25881,1.59176 c 1.53212,-0.14762 3.300482,-0.22438 4.832602,-0.37203 L 54.4082,241.73921 Z"
       id="path1776"
       inkscape:connector-curvature="0"
       sodipodi:nodetypes="ccccc" />
    <path
       sodipodi:nodetypes="cccccc"
       inkscape:connector-curvature="0"
       id="path1778"
       d="m 55.465571,241.65723 0.250049,1.61886 8.192731,-0.44435 2.831041,-0.15354 -0.274931,-1.51741 z"
       style="display:inline;fill:#3468b8;fill-opacity:1;stroke:#3468b8;stroke-width:0.065;stroke-linecap:butt;stroke-linejoin:round;stroke-miterlimit:4;stroke-dasharray:none;stroke-opacity:1" />
    <path
       sodipodi:nodetypes="ccccc"
       inkscape:connector-curvature="0"
       id="path1788"
       d="m 67.173251,241.08266 0.281511,1.52979 c 1.171811,-0.0851 4.216271,-0.39294 4.216279,-0.39294 l -0.27835,-1.37984 z"
       style="display:inline;fill:#fde992;fill-opacity:1;stroke:#fde992;stroke-width:0.04091074;stroke-linecap:butt;stroke-linejoin:round;stroke-miterlimit:4;stroke-dasharray:none;stroke-opacity:1" />
    <ellipse
       style="display:inline;fill:#31d6ba;fill-opacity:1;stroke:#31d6ba;stroke-width:0.06108801;stroke-linejoin:round;stroke-miterlimit:4;stroke-dasharray:none;stroke-opacity:1"
       id="path1790"
       cx="-1.3750192"
       cy="227.05443"
       rx="0.79107112"
       ry="0.85240239"
       transform="rotate(-7.9567303)" />
    <ellipse
       transform="rotate(-7.9567303)"
       ry="0.85240239"
       rx="0.79107112"
       cy="227.29265"
       cx="1.1740531"
       id="ellipse1798"
       style="display:inline;fill:#31d6ba;fill-opacity:1;stroke:#31d6ba;stroke-width:0.06108801;stroke-linejoin:round;stroke-miterlimit:4;stroke-dasharray:none;stroke-opacity:1" />
    <ellipse
       style="display:inline;fill:#31d6ba;fill-opacity:1;stroke:#31d6ba;stroke-width:0.06108801;stroke-linejoin:round;stroke-miterlimit:4;stroke-dasharray:none;stroke-opacity:1"
       id="ellipse1800"
       cx="3.8068044"
       cy="227.64375"
       rx="0.79107112"
       ry="0.85240239"
       transform="rotate(-7.9567303)" />
    <path
       style="display:inline;fill:#f48b9a;fill-opacity:1;stroke:none;stroke-width:0.26458332px;stroke-linecap:butt;stroke-linejoin:miter;stroke-opacity:1"
       d="m 37.822691,281.02848 c -4.63658,-18.03747 -11.77799,-42.16697 -16.81244,-61.14807 -0.57641,-0.3533 -1.07306,-3.12563 1.39604,-3.13857 24.5955,0.48871 47.216581,-0.0722 73.632762,0.051 2.144338,0.35017 2.92225,2.14946 4.009037,3.55719 1.50031,4.3673 3.35189,8.75655 4.40995,13.0962 l -5.868929,-1.26532 c -0.909629,-3.39536 -1.417439,-7.31944 -2.852768,-10.02309 -3.17192,-1.94697 -7.392469,-1.09803 -11.478059,-1.24974 -18.230912,0.71334 -36.708404,-0.0887 -56.273493,0.35374 -0.93657,0.0371 -1.0729,1.89978 -0.97574,2.39603 1.66727,7.24604 3.75824,14.14946 6.47047,21.30841 3.99089,11.28556 6.070121,22.14156 9.752751,33.07254 z"
       id="path849"
       inkscape:connector-curvature="0"
       sodipodi:nodetypes="cccccccccccccc" />
    <path
       style="display:inline;fill:none;stroke:#000000;stroke-width:0.26499999;stroke-linecap:round;stroke-linejoin:round;stroke-miterlimit:4;stroke-dasharray:none;stroke-opacity:1"
       d="m 37.822691,281.02848 -16.89926,-61.25556 c -0.95673,-3.17636 0.59022,-2.86702 1.48286,-3.03108 23.14531,0.41225 49.465481,-0.10171 69.012573,-0.0547 1.62737,0.004 3.167118,-0.1137 4.533368,0.0809 1.55676,0.26077 2.88881,1.43643 4.00904,3.47451 1.229418,2.57748 2.868418,7.72983 4.336498,12.09722 l -5.708659,-0.15891 c -0.95092,-3.34103 -1.321678,-7.80618 -2.852768,-10.02309 -1.32375,-1.67638 -7.97677,-1.15814 -18.522349,-1.04893 -15.770174,0.16332 -37.637983,0.0322 -49.229203,0.15293 -1.17114,0.18584 -1.01613,2.00067 -1.02948,1.75944 0.0428,3.04923 12.041072,37.61115 16.276961,55.01759 z"
       id="path3227"
       inkscape:connector-curvature="0"
       sodipodi:nodetypes="cccscccccscccc" />
    <path
       style="display:inline;fill:#d5586a;fill-opacity:1;stroke:none;stroke-width:0.26458332px;stroke-linecap:butt;stroke-linejoin:miter;stroke-opacity:1"
       d="m 37.484411,258.24917 c -0.781789,3.00843 -2.31173,6.75554 -3.4738,8.42824 l 3.80174,13.64 2.250141,-0.0134 -2.50367,-1.75635 1.467728,-4.53688 c -0.578037,-5.42717 1.678501,-6.57636 -1.542139,-15.76162 z"
       id="path7622"
       inkscape:connector-curvature="0"
       sodipodi:nodetypes="ccccccc" />
    <path
       style="display:inline;fill:#9b857f;fill-opacity:1;stroke-width:0.26458341"
       d="m 104.78514,231.97949 c 0.10777,0.12037 1.4905,0.38002 3.07272,0.577 6.91221,0.86056 13.13942,2.84831 18.64927,5.95292 3.4239,1.92925 5.80864,3.74664 8.54166,6.50951 4.74378,4.79557 7.17286,9.30681 8.24732,15.31671 0.4561,2.55117 0.47712,4.49181 0.082,7.57251 -0.38029,2.96533 -0.22595,3.70114 1.24549,5.93774 1.07082,1.62765 1.19573,1.97048 1.10259,3.02623 0.14343,0.71234 -0.12771,2.77046 -0.64329,2.9104 0,0 0.019,0.10755 -11.93162,0.007 -8.88371,-0.43184 -16.42074,-0.0965 -16.42074,0.44793 -8.51498,-1.56818 -76.292668,5.93292 -79.083778,-1.47768 -8.125371,-23.45283 49.225751,-37.71178 67.138378,-46.78061 z m -27.883778,47.9206 c 273.082628,103.5416 136.541298,51.77081 0,0 z m 15.98051,-0.22657 11.338248,-0.14209 0.548,-2.10687 c 0.36662,-1.57035 0.51752,-3.99544 -0.33629,-4.24899 -2.54996,-0.75719 -14.896807,-3.53298 -17.493888,-3.97639 -5.930498,-1.18131 -11.612749,0.0252 -13.25651,2.88857 -2.064991,1.21373 -2.860011,5.32021 -0.984321,7.26482 0.473871,0.49128 3.472481,1.72876 20.184761,0.32095 z m -18.896,-3.48453 c -0.42858,-1.11681 0.0516,-2.55515 0.67913,-2.03436 0.297169,0.24665 0.39166,1.0683 0.251669,2.1883 -0.0527,0.42194 -0.754359,0.30591 -0.930799,-0.15394 z m -35.920701,-1.02148 c 0,0 0.0783,-0.18491 0.50238,-0.58108 0.183171,-0.20319 0.49566,-0.36326 0.50241,-0.62525 l -0.216149,-0.47793 c -0.456642,-0.72122 -0.716312,-1.5108 -1.18042,-1.26242 -2.316131,-5.16708 -0.1334,3.87819 -0.1334,3.87819 0,0 0.26349,-1.25989 0.525179,-0.93151 z m 75.447589,-0.92563 c 0,-0.13692 -0.13386,-0.3317 -0.29747,-0.43282 -0.22578,-0.33982 -1.30629,-3.47659 -1.75504,-5.39238 -0.22748,-0.97935 -0.42625,-2.81253 -0.48212,-4.19497 -0.0559,-1.38245 0.0598,-2.2617 0.0548,-2.35813 -0.0136,-0.26707 -3.99296,-1.82949 -6.51603,-2.47297 -2.83912,-0.72408 -6.605498,-0.9483 -8.790857,-0.52335 -3.2331,0.62869 -6.726529,2.84405 -8.112199,5.14438 -0.284801,0.47278 -0.974442,1.50569 -1.053492,2.49494 -0.0756,0.94588 -0.0876,2.00586 -0.23482,2.23785 -0.265139,0.4177 0.233431,0.47781 0.612381,0.45475 0.25763,-0.0157 4.157699,0.75965 8.61523,1.84981 7.281537,1.78082 12.715037,2.97043 16.107507,3.25097 0.65484,0.0541 1.33945,0.11924 1.52134,0.14468 0.18192,0.0254 0.33074,-0.0658 0.33074,-0.20276 z m -77.258329,-7.06291 c 0,-0.3524 0.454319,-1.30574 0.79375,-2.21311 0.34316,-0.91735 0.81393,-2.55852 1.058331,-2.55884 0.137819,-1.8e-4 -0.931,-0.35102 -1.876891,-0.66578 -0.99262,-0.33033 -1.64878,-0.18719 -1.64878,-0.39481 0.15829,-0.19152 0.0461,0.006 1.64878,0.39481 2.275089,0.98822 2.256701,0.0143 2.693599,-0.67226 0.150961,-0.39703 0.56869,-1.30767 0.928301,-2.02363 l 0.65382,-1.30173 -0.67351,-0.97187 c -0.370441,-0.53455 -0.984671,-2.15399 -1.364948,-3.59878 -1.695681,-6.44209 -0.399172,-11.62931 2.604277,-10.41965 0.94456,0.38043 5.516502,4.87287 6.852841,6.73369 l 0.823971,1.14735 1.09542,-0.42236 c 0.743749,-0.28675 2.008521,-0.42835 3.93968,-0.44102 1.56436,-0.0103 2.844279,-0.0977 2.844279,-0.19421 0,-0.0965 0.7352,-1.16809 1.633781,-2.38125 1.983369,-2.6777 4.492029,-4.93066 5.398479,-5.15816 0.85454,-0.21447 1.742979,0.21652 2.318422,1.34807 0.239829,0.47156 0.388897,1.07272 0.431318,1.12152 0.0424,0.0488 1.1434,-0.76868 2.26083,-1.54508 4.361101,-3.03014 5.143201,-3.50111 8.746351,-5.26686 5.611051,-3.48556 17.088011,-6.03754 18.35109,-5.47445 1.377071,-0.15731 2.52759,-0.11182 2.54664,-0.14145 l 1.31926,-0.12205 c 1.856268,-0.25122 3.463428,0.0215 5.151618,0.0224 -11.245437,6.60235 -63.837709,61.82 -68.633639,36.51381 -0.02299,0 0.0021,-0.46294 0.0021,-0.46294 0,0 0.0937,-0.4743 0.101161,-0.8514 z m -6.2836,-3.93287 c 304.385219,114.78457 152.192599,57.39226 0,0 z"
       id="path1696"
       inkscape:connector-curvature="0"
       sodipodi:nodetypes="cssssccccccccccccsccscccccccccccccccccccccssccscccccsccccccccccsscccccsccccccccccccc" />
    <path
       style="display:inline;fill:#725e57;fill-opacity:1;stroke:none;stroke-width:0.26458332px;stroke-linecap:butt;stroke-linejoin:miter;stroke-opacity:1"
       d="m 86.204784,269.1377 c 14.616146,-3.77446 18.300346,9.53325 24.943106,-7.44186 -0.23878,4.46732 0.86419,8.81298 2.53221,12.97332 -10.49352,-0.91893 -18.365807,-3.65374 -27.475316,-5.53146 z"
       id="path7563-3"
       inkscape:connector-curvature="0"
       sodipodi:nodetypes="cccc" />
    <path
       style="display:inline;fill:none;stroke:#000000;stroke-width:0.26499999;stroke-linecap:round;stroke-linejoin:round;stroke-miterlimit:4;stroke-dasharray:none;stroke-opacity:1"
       d="m 120.58408,248.33485 c -4.5326,2.15678 -9.02026,7.04642 -9.525,14.22134 -0.40481,4.30874 1.08184,8.04722 2.62103,12.11297 v 0"
       id="path3443"
       inkscape:connector-curvature="0"
       sodipodi:nodetypes="cccc" />
    <path
       style="display:inline;fill:none;stroke:#000000;stroke-width:0.26458332px;stroke-linecap:round;stroke-linejoin:round;stroke-opacity:1"
       d="m 142.47835,273.07338 c -0.75762,0.92128 -1.55881,1.8258 -3.43958,2.3151 -10.91064,2.03447 -23.00991,-0.52477 -33.23828,-1.78589 -10.097617,-2.89612 -20.787318,-5.04281 -24.830419,-4.6685 -4.548018,-0.0161 -6.81223,2.12882 -8.678299,4.67583 -0.877639,1.33021 -1.09405,3.29186 -0.18845,5.12517 0.188169,0.38054 0.37927,0.74544 1.17666,1.00704 v 0"
       id="path3445"
       inkscape:connector-curvature="0"
       sodipodi:nodetypes="cccccccc" />
    <path
       style="display:inline;fill:none;stroke:#000000;stroke-width:0.26458332px;stroke-linecap:round;stroke-linejoin:round;stroke-opacity:1"
       d="m 72.347231,279.30762 c -2.553949,2.29701 -2.894298,-2.41666 -2.645659,-2.82658 1.10625,4.62285 -3.44982,4.27814 -2.128009,0.78428 -0.211902,4.0999 -4.608362,3.03399 -2.060872,-0.68902"
       id="path3451"
       inkscape:connector-curvature="0"
       sodipodi:nodetypes="cccc" />
    <path
       style="display:inline;fill:none;stroke:#000000;stroke-width:0.26499999;stroke-linecap:round;stroke-linejoin:round;stroke-miterlimit:4;stroke-dasharray:none;stroke-opacity:1"
       d="m 65.512691,276.57629 c 4.34811,-5.08923 5.453589,-9.14081 5.141331,-12.73872 -0.0522,-0.59049 -4.47825,-4.55393 -4.583671,-6.75857 1.672471,-11.79937 -0.0583,-14.51726 -1.532131,-15.09969 -0.882168,-0.56323 -7.388788,3.9001 -8.357838,9.2926"
       id="path3453"
       inkscape:connector-curvature="0"
       sodipodi:nodetypes="ccccc" />
    <path
       style="display:inline;fill:none;stroke:#000000;stroke-width:0.26458332px;stroke-linecap:round;stroke-linejoin:round;stroke-opacity:1"
       d="m 49.51203,252.0927 c -1.64043,-3.68249 -7.181678,-9.00653 -8.29895,-9.11013 -5.06825,-2.10383 -4.268639,9.6079 -0.707739,14.76105"
       id="path3455"
       inkscape:connector-curvature="0"
       sodipodi:nodetypes="ccc" />
    <path
       style="display:inline;fill:#000000;fill-opacity:1;stroke:#000000;stroke-width:0.26458332px;stroke-linecap:round;stroke-linejoin:round;stroke-opacity:1"
       d="m 45.465932,263.70486 c 1.77819,0.15987 2.998179,0.17985 4.543219,-0.40794 0.703921,0.039 0.862901,1.17337 0.743161,2.02514 -0.197831,0.6899 -1.693801,1.87869 -2.233371,2.0229 -0.22909,0.0612 -1.38737,0.12462 -1.905958,-0.15201 -1.372992,-0.79122 -2.387531,-1.67623 -2.467243,-2.37368 -0.142578,-0.34467 0.652852,-1.13189 1.320192,-1.11441 z"
       id="path7237"
       inkscape:connector-curvature="0"
       sodipodi:nodetypes="cccsccc" />
    <path
       style="display:inline;fill:none;stroke:#000000;stroke-width:0.26458332px;stroke-linecap:round;stroke-linejoin:miter;stroke-opacity:1"
       d="m 54.822853,263.18367 c 2.086898,-1.09989 3.987488,-1.82719 5.576218,-1.93077"
       id="path7243"
       inkscape:connector-curvature="0"
       sodipodi:nodetypes="cc" />
    <path
       style="display:inline;fill:none;stroke:#000000;stroke-width:0.26458332px;stroke-linecap:round;stroke-linejoin:miter;stroke-opacity:1"
       d="m 56.181451,265.43789 c 3.016181,-0.69313 6.245971,-1.55203 9.4561,-0.77061"
       id="path7245"
       inkscape:connector-curvature="0"
       sodipodi:nodetypes="cc" />
    <path
       style="display:inline;fill:none;stroke:#000000;stroke-width:0.26458332px;stroke-linecap:round;stroke-linejoin:miter;stroke-opacity:1"
       d="m 56.189582,268.68968 c 2.522659,-0.22996 4.897829,0.31153 7.015818,2.19828"
       id="path7247"
       inkscape:connector-curvature="0"
       sodipodi:nodetypes="cc" />
    <path
       style="display:inline;fill:none;stroke:#000000;stroke-width:0.26499999;stroke-linecap:round;stroke-linejoin:round;stroke-miterlimit:4;stroke-dasharray:none;stroke-opacity:1"
       d="m 47.747212,267.45021 c -0.15321,1.1691 -0.01889,2.21479 0.0841,2.93701"
       id="path7251"
       inkscape:connector-curvature="0"
       sodipodi:nodetypes="cc" />
    <path
       style="display:inline;fill:none;stroke:#000000;stroke-width:0.26458332px;stroke-linecap:round;stroke-linejoin:round;stroke-opacity:1"
       d="m 58.667862,252.09509 c -1.317691,-3.35161 4.393931,-9.1913 5.249059,-8.56625 0.96121,0.16359 2.425221,6.32511 0.45779,7.20032"
       id="path7253"
       inkscape:connector-curvature="0"
       sodipodi:nodetypes="ccc" />
    <path
       style="display:inline;fill:none;stroke:#000000;stroke-width:0.26499999;stroke-linecap:round;stroke-linejoin:round;stroke-miterlimit:4;stroke-dasharray:none;stroke-opacity:1"
       d="m 42.024721,256.95466 c -2.020159,-0.53576 -4.74999,-11.79075 -2.70207,-12.57525 2.359811,-0.67418 10.457931,6.85863 7.961,8.88639"
       id="path7255"
       inkscape:connector-curvature="0"
       sodipodi:nodetypes="ccc" />
    <path
       style="display:inline;fill:none;stroke:#000000;stroke-width:0.26499999;stroke-linecap:round;stroke-linejoin:round;stroke-miterlimit:4;stroke-dasharray:none;stroke-opacity:1"
       d="m 55.760512,270.55261 c -0.0531,4.06487 -7.89731,2.64673 -7.929239,-0.16539 -1.48708,3.30463 -5.743631,2.30158 -4.820381,0.41341"
       id="path7305"
       inkscape:connector-curvature="0"
       sodipodi:nodetypes="ccc" />
    <path
       style="display:inline;fill:#725e57;fill-opacity:1;stroke:none;stroke-width:0.26458332px;stroke-linecap:butt;stroke-linejoin:miter;stroke-opacity:1"
       d="m 58.754683,251.969 c -0.119031,-0.53541 -0.45221,-1.25558 0.434887,-3.29042 1.832042,-3.62183 4.303972,-5.20683 4.578522,-5.03398 -0.707281,3.15302 -2.56868,5.85316 -5.013409,8.3244 z"
       id="path7599"
       inkscape:connector-curvature="0"
       sodipodi:nodetypes="cccc" />
    <path
       style="display:inline;fill:none;stroke:#000000;stroke-width:0.26458332px;stroke-linecap:round;stroke-linejoin:miter;stroke-opacity:1"
       d="m 53.758442,258.43094 c 1.419389,1.16909 3.930719,1.08504 4.78437,-0.9341 v 0 l 0.009,0.003"
       id="path7233"
       inkscape:connector-curvature="0"
       sodipodi:nodetypes="cccc" />
    <path
       style="display:inline;fill:none;stroke:#000000;stroke-width:0.26499999;stroke-linecap:round;stroke-linejoin:round;stroke-miterlimit:4;stroke-dasharray:none;stroke-opacity:1"
       d="m 46.963532,260.08735 c -1.464069,1.25661 -2.87405,1.71136 -4.560041,-0.41302"
       id="path7235"
       inkscape:connector-curvature="0"
       sodipodi:nodetypes="cc" />
    <path
       style="display:inline;fill:none;stroke:#000000;stroke-width:0.26458332px;stroke-linecap:round;stroke-linejoin:miter;stroke-opacity:1"
       d="m 41.690201,264.19955 c -2.112719,-1.60655 -4.558491,-2.36383 -7.10936,-2.85312"
       id="path7239"
       inkscape:connector-curvature="0"
       sodipodi:nodetypes="cc" />
    <path
       style="display:inline;fill:none;stroke:#000000;stroke-width:0.26458332px;stroke-linecap:round;stroke-linejoin:miter;stroke-opacity:1"
       d="m 42.11115,266.21074 c -2.463988,0.78785 -4.957998,1.48063 -7.296449,2.66602"
       id="path7241"
       inkscape:connector-curvature="0"
       sodipodi:nodetypes="cc" />
    <path
       style="display:inline;fill:none;stroke:#000000;stroke-width:0.26458332px;stroke-linecap:round;stroke-linejoin:miter;stroke-opacity:1"
       d="m 42.204702,268.36225 c -1.923561,1.11743 -3.608822,2.6519 -5.180651,4.38486"
       id="path7249"
       inkscape:connector-curvature="0"
       sodipodi:nodetypes="cc" />
    <path
       style="display:inline;fill:none;stroke:#000000;stroke-width:0.26458332px;stroke-linecap:round;stroke-linejoin:round;stroke-opacity:1"
       d="m 39.02655,274.0108 c -1.996889,-2.08206 -2.580878,-4.07325 -2.873039,-5.98047 1.02044,-4.04024 1.38869,-4.17104 2.210639,-6.06015 0.706932,-1.40885 1.40494,-2.8177 2.141202,-4.22656"
       id="path7317"
       inkscape:connector-curvature="0"
       sodipodi:nodetypes="cccc" />
    <path
       style="display:inline;fill:#725e57;fill-opacity:1;stroke:none;stroke-width:0.26458332px;stroke-linecap:butt;stroke-linejoin:miter;stroke-opacity:1"
       d="m 40.01656,246.11968 c -0.706749,0.8171 1.648482,11.133 2.008161,10.83498 -1.624351,-0.59363 -4.912809,-11.70825 -2.646259,-12.45123 1.388488,-0.30501 3.962699,1.75473 4.53303,2.34603 -1.397022,0.0506 -4.01949,-1.52647 -3.894932,-0.72978 z"
       id="path7601"
       inkscape:connector-curvature="0"
       sodipodi:nodetypes="ccccc" />
    <a
       style="display:inline"
       transform="translate(552.23461,43.055363)"
       id="a3504">
      <path
         sodipodi:nodetypes="cccccccccc"
         inkscape:connector-curvature="0"
         id="path851"
         d="m -513.51775,237.19907 c 18.11264,0.5181 38.37249,-1.08844 54.51198,-0.45706 l 8.41919,-0.16127 c 5.00475,0.18288 13.84267,-0.79791 14.76711,0.62366 0.87514,0.15369 1.12062,1.63381 1.4358,2.96711 -0.78692,2.06751 -2.20678,2.89423 -3.93404,3.11831 l -74.05747,0.0105 c -1.67804,-0.9811 -2.32757,-2.06678 -2.42292,-3.60123 0.1468,-1.18089 0.0722,-2.37024 1.28035,-2.49997 z"
         style="fill:#f48b9a;fill-opacity:1;stroke:none;stroke-width:0.22225605px;stroke-linecap:butt;stroke-linejoin:miter;stroke-opacity:1" />
    </a>
    <path
       style="display:inline;fill:#d5586a;fill-opacity:1;stroke:none;stroke-width:0.26458332px;stroke-linecap:butt;stroke-linejoin:miter;stroke-opacity:1"
       d="m 115.35454,286.29887 30.68454,-0.0232 c 1.5402,-0.16497 2.61527,-0.44441 3.28353,-1.0388 2.08746,-1.16767 1.86229,-4.08386 0.0214,-5.17013 -9.48385,-0.47928 -22.79856,-0.66787 -33.76277,-0.39953 1.11865,0.67958 1.86062,1.58374 2.05336,3.5596 -0.47756,1.35603 -1.1804,2.30742 -2.28006,3.07202 z"
       id="path1694"
       inkscape:connector-curvature="0"
       sodipodi:nodetypes="ccccccc" />
    <path
       style="display:inline;fill:none;stroke:#000000;stroke-width:0.26458332px;stroke-linecap:butt;stroke-linejoin:round;stroke-opacity:1"
       d="m 38.716821,280.2544 c 36.875141,-0.24062 74.026229,-1.24101 110.469299,-0.26394 0.93551,0.30525 1.85594,2.08834 1.68512,3.04365 -0.86343,2.68405 -2.82785,3.14906 -4.87895,3.20036 l -106.132879,0.12114 c -1.534499,-0.51789 -2.417918,-2.34537 -2.42294,-3.60161 -0.0787,-1.50712 0.31973,-2.37818 1.28035,-2.4996 z"
       id="path3219"
       inkscape:connector-curvature="0"
       sodipodi:nodetypes="ccccccc" />
    <path
       style="display:inline;fill:none;stroke:#000000;stroke-width:0.26499999;stroke-linecap:round;stroke-linejoin:round;stroke-miterlimit:4;stroke-dasharray:none;stroke-opacity:1"
       d="m 114.65237,286.27894 c 3.18615,-0.37563 4.65451,-6.17554 -0.17777,-6.68487 v 0"
       id="path3265"
       inkscape:connector-curvature="0"
       sodipodi:nodetypes="ccc" />
    <path
       style="display:inline;fill:#000000;fill-opacity:1;stroke:#000000;stroke-width:0.26499999;stroke-linecap:butt;stroke-linejoin:round;stroke-miterlimit:4;stroke-dasharray:none;stroke-opacity:1"
       d="m 43.463621,284.48522 c 0.55672,-0.0386 0.773081,-2.36755 0.152011,-2.53741 -1.086422,-0.0699 -2.10775,-0.21781 -3.414382,-0.0234 -1.061929,0.41322 -0.681717,1.31739 -0.314518,2.2171 0.241879,0.46345 2.18861,0.60687 3.576889,0.3437 z"
       id="path3267"
       inkscape:connector-curvature="0"
       sodipodi:nodetypes="ccccc" />
    <path
       style="display:inline;fill:#cf3e53;fill-opacity:1;stroke:#000000;stroke-width:0.26499999;stroke-linecap:butt;stroke-linejoin:round;stroke-miterlimit:4;stroke-dasharray:none;stroke-opacity:1"
       d="m 49.111351,283.93563 c 1.062489,0.62527 16.010471,0.87668 16.522281,0.56127 1.616581,-0.28985 1.227871,-1.73266 -0.0819,-2.13982 -4.396039,-0.20449 -11.20339,-0.73662 -15.902541,0.0468 -0.397489,-0.0448 -1.364279,0.9842 -0.537847,1.53177 z"
       id="path3269"
       inkscape:connector-curvature="0"
       sodipodi:nodetypes="cccccc" />
    <path
       style="display:inline;fill:#cf3e53;fill-opacity:1;stroke:#000000;stroke-width:0.26458332px;stroke-linecap:butt;stroke-linejoin:miter;stroke-opacity:1"
       d="m 80.889053,284.43927 c -1.036039,0.60382 -2.79296,0.53393 -5.721411,0.0515 -0.78485,-0.49053 -0.899909,-1.91515 0.264369,-2.10206 1.766912,-0.26576 3.379132,-0.0933 4.960941,0.16536 0.633981,0.1598 1.195451,1.08695 0.496101,1.8852 z"
       id="path3271"
       inkscape:connector-curvature="0"
       sodipodi:nodetypes="ccccc" />
    <path
       style="display:inline;fill:#cf3e53;fill-opacity:1;stroke:#000000;stroke-width:0.26499999;stroke-linecap:butt;stroke-linejoin:round;stroke-miterlimit:4;stroke-dasharray:none;stroke-opacity:1"
       d="m 94.796202,283.88941 c -0.875009,1.15144 -2.151589,-0.17168 -1.785919,-0.7772 0.569391,-1.42067 2.652231,-0.63831 1.785919,0.7772 z"
       id="path3273"
       inkscape:connector-curvature="0"
       sodipodi:nodetypes="ccc" />
    <path
       style="display:inline;fill:none;stroke:#000000;stroke-width:0.26499999;stroke-linecap:round;stroke-linejoin:round;stroke-miterlimit:4;stroke-dasharray:none;stroke-opacity:1"
       d="m 81.491893,255.59435 c 0.465069,-0.19408 4.54982,5.15496 4.96094,7.9871 0.21562,1.86828 0.0824,3.28864 -0.248049,5.55625"
       id="path3447"
       inkscape:connector-curvature="0"
       sodipodi:nodetypes="ccc" />
    <path
       style="display:inline;fill:none;stroke:#000000;stroke-width:0.26458332px;stroke-linecap:butt;stroke-linejoin:miter;stroke-opacity:1"
       d="m 65.008933,277.68465 c -0.90388,1.80212 -2.605262,1.93139 -4.209492,2.36201"
       id="path7313"
       inkscape:connector-curvature="0"
       sodipodi:nodetypes="cc" />
    <path
       style="display:inline;fill:#725e57;fill-opacity:1;stroke:none;stroke-width:0.26458332px;stroke-linecap:butt;stroke-linejoin:miter;stroke-opacity:1"
       d="m 39.028612,274.32499 c 0.667178,0.78697 1.342109,2.6297 6.013849,5.74963 -7.671319,-0.0824 -7.789209,-4.08813 -6.013849,-5.74963 z"
       id="path7563-3-5"
       inkscape:connector-curvature="0"
       sodipodi:nodetypes="ccc" />
    <path
       style="display:inline;fill:none;stroke:#000000;stroke-width:0.26458332px;stroke-linecap:butt;stroke-linejoin:miter;stroke-opacity:1"
       d="m 39.02655,274.0108 c 2.591811,4.24903 5.762901,6.0883 6.933682,6.15477"
       id="path7319"
       inkscape:connector-curvature="0"
       sodipodi:nodetypes="cc" />
    <path
       style="display:inline;fill:none;stroke:#000000;stroke-width:0.26499999;stroke-linecap:round;stroke-linejoin:round;stroke-miterlimit:4;stroke-dasharray:none;stroke-opacity:1"
       d="m 40.855771,280.26552 c -1.291241,0.0122 -2.353029,-0.43397 -2.770388,-0.8974 -1.495762,-1.47564 0.003,-4.3967 0.959768,-5.25811"
       id="path3225"
       inkscape:connector-curvature="0"
       sodipodi:nodetypes="ccc" />
    <path
       style="display:inline;fill:none;stroke:#000000;stroke-width:0.26499999;stroke-linecap:round;stroke-linejoin:round;stroke-miterlimit:4;stroke-dasharray:none;stroke-opacity:1"
       d="m 48.747972,250.63436 c 2.432838,-1.30755 5.19217,-0.33828 7.78851,-0.99241"
       id="path7705"
       inkscape:connector-curvature="0"
       sodipodi:nodetypes="cc" />
    <path
       style="display:inline;fill:none;stroke:#000000;stroke-width:0.26458332px;stroke-linecap:round;stroke-linejoin:round;stroke-opacity:1"
       d="m 66.354511,244.59103 c 18.673893,-14.55991 33.959389,-13.76533 47.596739,-10.97402 15.29283,3.73049 30.00387,15.80765 29.6241,30.71771 -0.036,2.1788 -0.29832,6.47028 -0.29832,6.47028 -0.13276,0.9063 2.21447,3.96617 2.46086,5.36553 0.14751,0.88759 0.32098,1.75273 -0.655,3.61198 v 0 0"
       id="path7707"
       inkscape:connector-curvature="0"
       sodipodi:nodetypes="cccccccc" />
    <path
       style="display:inline;fill:#ffffff;fill-opacity:1;stroke:#000000;stroke-width:0.19210495;stroke-linecap:butt;stroke-linejoin:miter;stroke-miterlimit:4;stroke-dasharray:none;stroke-opacity:1"
       d="m 10.927461,256.74061 4.90406,30.63151 c 4.63961,0.9488 9.13972,1.22799 13.27868,-0.22636 l 4.79089,-30.7258 z"
       id="path8041"
       inkscape:connector-curvature="0"
       sodipodi:nodetypes="ccccc" />
    <path
       style="display:inline;fill:#9b857f;fill-opacity:1;stroke:#000000;stroke-width:0.19210495;stroke-linecap:butt;stroke-linejoin:miter;stroke-miterlimit:4;stroke-dasharray:none;stroke-opacity:1"
       d="m 8.9658414,256.66516 27.3118306,-0.30178 -1.358051,-3.31967 -25.3502096,0.22635 z"
       id="path8043"
       inkscape:connector-curvature="0" />
    <path
       style="display:inline;fill:#9b857f;fill-opacity:1;stroke:#000000;stroke-width:0.19210495;stroke-linecap:butt;stroke-linejoin:miter;stroke-miterlimit:4;stroke-dasharray:none;stroke-opacity:1"
       d="m 10.852011,253.25119 1.05626,-3.37625 21.04973,0.22634 1.0091,2.96129 z"
       id="path8045"
       inkscape:connector-curvature="0"
       sodipodi:nodetypes="ccccc" />
    <path
       style="display:inline;fill:#e3e5d7;fill-opacity:1;stroke:none;stroke-width:0.19210495;stroke-linecap:butt;stroke-linejoin:miter;stroke-miterlimit:4;stroke-dasharray:none;stroke-opacity:1"
       d="m 16.200571,256.72147 c 0.17618,1.26394 1.06034,6.75306 1.06034,6.75306 -2.12299,0.0471 -3.69168,-0.10805 -5.25314,-0.32225 -0.38175,-2.30419 -0.69977,-4.56162 -1.0153,-6.36071 z"
       id="path8049"
       inkscape:connector-curvature="0"
       sodipodi:nodetypes="ccccc" />
    <path
       style="display:inline;fill:#e3e5d7;fill-opacity:1;stroke:none;stroke-width:0.19210495;stroke-linecap:butt;stroke-linejoin:miter;stroke-miterlimit:4;stroke-dasharray:none;stroke-opacity:1"
       d="m 18.922651,278.13205 c 0.22115,3.50715 0.587,7.34084 0.65519,9.78249 -1.61961,-0.17254 -3.28799,-0.51824 -3.69914,-0.59461 -0.51386,-3.60019 -1.12138,-6.91858 -1.53928,-9.57395 z"
       id="path8049-6"
       inkscape:connector-curvature="0"
       sodipodi:nodetypes="ccccc" />
    <path
       style="display:inline;fill:#725e57;fill-opacity:1;stroke:none;stroke-width:0.19210495;stroke-linecap:butt;stroke-linejoin:miter;stroke-miterlimit:4;stroke-dasharray:none;stroke-opacity:1"
       d="m 9.0553014,256.58069 7.1185496,-0.0487 -0.40601,-3.26336 -6.1288496,0.076 z"
       id="path8043-9"
       inkscape:connector-curvature="0"
       sodipodi:nodetypes="ccccc" />
    <path
       style="display:inline;fill:#725e57;fill-opacity:1;stroke:none;stroke-width:0.19210495;stroke-linecap:butt;stroke-linejoin:miter;stroke-miterlimit:4;stroke-dasharray:none;stroke-opacity:1"
       d="m 10.923181,253.19936 1.02902,-3.26819 3.09374,0.0324 0.71146,3.19738 z"
       id="path8045-1"
       inkscape:connector-curvature="0"
       sodipodi:nodetypes="ccccc" />
    <path
       style="display:inline;fill:#1ebcbf;fill-opacity:1;stroke:#000000;stroke-width:0.19210495;stroke-linecap:round;stroke-linejoin:round;stroke-miterlimit:4;stroke-dasharray:none;stroke-opacity:1"
       d="m 11.654601,263.06531 c 0.14588,0.71124 21.83936,0.76281 21.33873,-0.13136 0.45442,2.61182 -1.44944,10.15184 -2.19398,15.03686 -0.89723,0.11737 -15.21619,0.70363 -16.72831,-0.42923 -0.56585,-4.95436 -2.49591,-8.76902 -2.41644,-14.47627 z"
       id="path8047"
       inkscape:connector-curvature="0"
       sodipodi:nodetypes="ccccc" />
    <path
       style="display:inline;fill:#1cabae;fill-opacity:1;stroke:none;stroke-width:0.19210495;stroke-linecap:round;stroke-linejoin:round;stroke-miterlimit:4;stroke-dasharray:none;stroke-opacity:1"
       d="m 11.707311,263.1883 c 0.19761,0.19392 5.52006,0.41553 5.56198,0.40507 0.23425,2.65587 1.25073,9.88308 1.65336,14.53868 -0.25624,-0.0894 -3.9399,-0.0423 -4.80937,-0.62775 -0.56585,-4.95436 -2.48544,-8.60874 -2.40597,-14.316 z"
       id="path8047-2"
       inkscape:connector-curvature="0"
       sodipodi:nodetypes="ccccc" />
    <path
       style="display:inline;fill:#000000;fill-opacity:1;stroke:#000000;stroke-width:0.1;stroke-miterlimit:4;stroke-dasharray:none;stroke-opacity:1"
       d="m 13.973291,266.05468 c -0.0104,-0.001 -0.044,-0.0168 -0.12419,-0.0558 -0.059,-0.0287 -0.2006,-0.10276 -0.20961,-0.10958 -8.2e-4,-7.9e-4 -0.009,-0.005 -0.0176,-0.0103 -0.0967,-0.0527 -0.24471,-0.14647 -0.32761,-0.20738 -0.21392,-0.15723 -0.33129,-0.28527 -0.39569,-0.43165 -0.088,-0.19982 -0.0867,-0.42763 0.002,-0.60232 0.0147,-0.0291 0.0507,-0.0812 0.072,-0.10487 0.0648,-0.0715 0.13921,-0.11618 0.23784,-0.14271 0.0824,-0.0223 0.16596,-0.0214 0.24418,0.003 0.079,0.0242 0.15936,0.0753 0.2232,0.1418 0.006,0.007 0.0126,0.0125 0.0132,0.0124 6.62e-4,-1.3e-4 0.005,-0.009 0.009,-0.02 0.0266,-0.0669 0.0702,-0.13368 0.11872,-0.18197 0.0635,-0.0631 0.13619,-0.10112 0.228,-0.11928 0.15208,-0.03 0.29677,0.009 0.41478,0.11111 0.13582,0.11782 0.22173,0.31672 0.22453,0.51972 0.002,0.12017 -0.0246,0.22969 -0.086,0.36542 -0.0425,0.0932 -0.0926,0.18074 -0.1684,0.29361 -0.0543,0.0809 -0.0828,0.12104 -0.12209,0.17137 -0.004,0.005 -0.0151,0.0193 -0.0251,0.0325 -0.0648,0.0844 -0.18421,0.22428 -0.26065,0.30551 -0.0241,0.0255 -0.0348,0.0318 -0.0504,0.0293 z m 0.0529,-0.12728 c 0.0287,-0.0319 0.0614,-0.0688 0.0728,-0.082 0.0118,-0.0132 0.0259,-0.0301 0.0323,-0.0376 0.0202,-0.0234 0.0367,-0.0438 0.0895,-0.11075 0.11771,-0.14904 0.21627,-0.29679 0.28233,-0.42314 0.009,-0.017 0.0184,-0.035 0.0211,-0.0403 0.009,-0.0185 0.0388,-0.0865 0.0516,-0.12106 0.0153,-0.0408 0.033,-0.10568 0.0386,-0.14143 0.005,-0.0323 0.009,-0.10075 0.007,-0.13411 -0.005,-0.0978 -0.0259,-0.18433 -0.0663,-0.26825 -0.0858,-0.18024 -0.23783,-0.28819 -0.40727,-0.2891 -0.11138,-5.3e-4 -0.21067,0.0381 -0.2835,0.11057 -0.0255,0.0254 -0.0494,0.0558 -0.0661,0.0845 -0.007,0.012 -0.013,0.0222 -0.0137,0.023 -0.008,0.0107 -0.0324,0.0695 -0.042,0.10114 -0.009,0.0304 -0.0157,0.0399 -0.0299,0.0434 -0.019,0.005 -0.0288,2.7e-4 -0.0457,-0.0213 -0.0406,-0.0521 -0.0985,-0.1023 -0.15294,-0.1324 -0.10407,-0.0575 -0.20896,-0.0654 -0.3272,-0.0245 -0.0816,0.0282 -0.151259,0.0823 -0.201179,0.15613 -0.0328,0.0486 -0.0515,0.0898 -0.0677,0.14834 -0.0409,0.14891 -0.0236,0.31622 0.0479,0.46535 0.0216,0.0448 0.036,0.0683 0.0703,0.11346 0.121459,0.15996 0.355299,0.33567 0.681639,0.51213 0.0932,0.0504 0.24831,0.12746 0.254211,0.12631 8.2e-4,-1.6e-4 0.0251,-0.0264 0.0539,-0.0583 z m 0.58501,-1.25003 c 0.002,-0.004 0.002,-0.004 -7.41e-4,-0.002 -0.002,8e-4 -0.003,0.003 -0.003,0.004 5.3e-4,0.003 0.003,10e-4 0.004,-0.002 z m 0.009,-0.0552 c -0.002,-2.5e-4 -0.005,2.7e-4 -0.007,0.001 -0.002,8e-4 -6.61e-4,8e-4 0.003,2.4e-4 0.004,-5.3e-4 0.006,-10e-4 0.004,-10e-4 z"
       id="path8165"
       inkscape:connector-curvature="0"
       sodipodi:nodetypes="csccssccssccccsscccccccsccsscccccssccsccssccsccssccsccccccc" />
    <path
       sodipodi:nodetypes="csccssccssccccsscccccccsccsscccccssccsccssccsccssccsccccccc"
       inkscape:connector-curvature="0"
       id="path8184"
       d="m 13.778141,268.25199 c -0.008,5.3e-4 -0.0349,-0.007 -0.0994,-0.0251 -0.0475,-0.0136 -0.16223,-0.05 -0.1698,-0.0539 -6.88e-4,-5.3e-4 -0.008,-0.002 -0.0144,-0.005 -0.0786,-0.0264 -0.20066,-0.0767 -0.27011,-0.11102 -0.17923,-0.0887 -0.28302,-0.16832 -0.34991,-0.26848 -0.0914,-0.13671 -0.12019,-0.30586 -0.0772,-0.44704 0.007,-0.0235 0.027,-0.0669 0.0397,-0.0872 0.0387,-0.0615 0.0881,-0.10437 0.15778,-0.13693 0.0582,-0.0273 0.12031,-0.0376 0.18152,-0.0297 0.0618,0.008 0.12804,0.035 0.18408,0.076 0.005,0.005 0.011,0.008 0.0114,0.008 4.76e-4,-1.8e-4 0.002,-0.008 0.004,-0.016 0.011,-0.0531 0.0346,-0.10833 0.0642,-0.1505 0.0389,-0.0551 0.0878,-0.0928 0.15354,-0.11826 0.10889,-0.0421 0.22131,-0.0321 0.32218,0.0283 0.11614,0.0697 0.20586,0.20594 0.23446,0.35616 0.0172,0.0889 0.0117,0.1736 -0.016,0.2823 -0.0194,0.0747 -0.045,0.14617 -0.0866,0.2398 -0.0297,0.0671 -0.0456,0.1006 -0.0682,0.14306 -0.002,0.005 -0.009,0.0163 -0.0144,0.0274 -0.0371,0.0711 -0.10734,0.19043 -0.15342,0.26067 -0.0145,0.0221 -0.0217,0.0281 -0.0335,0.0283 z m 0.0226,-0.10132 c 0.0171,-0.0274 0.0365,-0.0591 0.0433,-0.0703 0.007,-0.0113 0.0153,-0.0257 0.019,-0.0321 0.0119,-0.02 0.0215,-0.0373 0.0519,-0.0938 0.0679,-0.12593 0.12164,-0.2484 0.15413,-0.35075 0.005,-0.0138 0.009,-0.0284 0.0104,-0.0327 0.005,-0.0149 0.0175,-0.0692 0.0224,-0.0966 0.006,-0.0322 0.0107,-0.0827 0.0102,-0.10995 -5.29e-4,-0.0246 -0.007,-0.0759 -0.0124,-0.10039 -0.0165,-0.0718 -0.0433,-0.13334 -0.0842,-0.19032 -0.0872,-0.12248 -0.21407,-0.18268 -0.339879,-0.16122 -0.0827,0.0141 -0.151291,0.0558 -0.195841,0.11906 -0.0156,0.0221 -0.0294,0.0478 -0.038,0.0713 -0.004,0.01 -0.007,0.0182 -0.008,0.0188 -0.005,0.009 -0.0149,0.0558 -0.0179,0.0805 -0.003,0.0237 -0.007,0.0316 -0.0165,0.0361 -0.0135,0.006 -0.0213,0.004 -0.0367,-0.01 -0.0369,-0.0334 -0.0864,-0.063 -0.130739,-0.0782 -0.0847,-0.0291 -0.16354,-0.0212 -0.245911,0.0246 -0.0569,0.0316 -0.101439,0.0808 -0.12882,0.1421 -0.018,0.0404 -0.0264,0.0734 -0.0308,0.11888 -0.0108,0.11579 0.0238,0.23764 0.0963,0.33892 0.0218,0.0304 0.0356,0.0459 0.067,0.0749 0.11099,0.10279 0.307401,0.20256 0.572531,0.29081 0.0757,0.0252 0.200839,0.0621 0.205069,0.0605 5.82e-4,-2.2e-4 0.0151,-0.0229 0.0324,-0.0503 z m 0.2706,-1.00367 c 7.68e-4,-0.003 7.68e-4,-0.003 -7.4e-4,-0.002 -0.002,8e-4 -0.002,0.002 -0.002,0.003 7.67e-4,0.002 0.002,2.7e-4 0.003,-0.002 z m -5.29e-4,-0.0421 c -0.002,7e-5 -0.004,8e-4 -0.005,0.002 -0.002,8e-4 -3.7e-4,8e-4 0.002,-2.3e-4 0.003,-7.9e-4 0.005,-0.002 0.003,-0.002 z"
       style="display:inline;fill:#000000;fill-opacity:1;stroke:#000000;stroke-width:0.1;stroke-miterlimit:4;stroke-dasharray:none;stroke-opacity:1" />
    <path
       style="display:inline;fill:#000000;fill-opacity:1;stroke:#000000;stroke-width:0.1;stroke-miterlimit:4;stroke-dasharray:none;stroke-opacity:1"
       d="m 15.245801,267.00377 c 0.007,-10e-4 0.03,-0.0148 0.0843,-0.0471 0.0398,-0.0241 0.13525,-0.0856 0.14118,-0.0911 5.29e-4,-5.3e-4 0.006,-0.004 0.0119,-0.008 0.065,-0.0436 0.16367,-0.12028 0.21841,-0.16945 0.14125,-0.127 0.21616,-0.22797 0.25251,-0.3404 0.0497,-0.1535 0.0346,-0.32411 -0.0389,-0.45118 -0.0125,-0.0211 -0.0409,-0.0587 -0.0574,-0.0755 -0.0502,-0.0508 -0.10557,-0.0811 -0.17683,-0.0967 -0.0596,-0.0131 -0.11852,-0.009 -0.17223,0.0127 -0.0542,0.0219 -0.10783,0.0632 -0.14876,0.11581 -0.004,0.006 -0.008,0.0103 -0.008,0.0104 -4.76e-4,-8e-5 -0.004,-0.007 -0.008,-0.0145 -0.023,-0.049 -0.0579,-0.0972 -0.0951,-0.13126 -0.0488,-0.0445 -0.10246,-0.0699 -0.16842,-0.0796 -0.10924,-0.0159 -0.20899,0.0195 -0.28593,0.10114 -0.0885,0.0942 -0.136839,0.24681 -0.12617,0.39903 0.006,0.0901 0.0317,0.17102 0.0834,0.27009 0.0359,0.068 0.0766,0.13145 0.13727,0.21273 0.0433,0.0583 0.066,0.0871 0.0969,0.12314 0.003,0.004 0.0117,0.0139 0.0198,0.0233 0.0511,0.0605 0.14403,0.16012 0.20306,0.21769 0.0186,0.0181 0.0265,0.0223 0.0373,0.0198 z m -0.0453,-0.0931 c -0.0222,-0.0227 -0.0476,-0.049 -0.0565,-0.0583 -0.01,-0.009 -0.0201,-0.0214 -0.0251,-0.0268 -0.0157,-0.0167 -0.0287,-0.0312 -0.07,-0.0791 -0.0924,-0.1066 -0.17119,-0.21307 -0.2257,-0.30489 -0.008,-0.0122 -0.0147,-0.0256 -0.0177,-0.0293 -0.008,-0.0132 -0.0328,-0.0631 -0.0439,-0.0886 -0.0137,-0.0298 -0.0299,-0.0778 -0.0365,-0.10419 -0.006,-0.024 -0.0117,-0.0753 -0.0132,-0.10018 -0.002,-0.0734 0.007,-0.13922 0.0301,-0.20383 0.0493,-0.13871 0.14998,-0.22612 0.26957,-0.23408 0.0786,-0.005 0.15113,0.0195 0.20705,0.0707 0.0196,0.0179 0.0384,0.0396 0.0519,0.0605 0.006,0.009 0.0112,0.016 0.0114,0.0165 0.007,0.007 0.0272,0.0507 0.0359,0.074 0.009,0.0222 0.0145,0.0289 0.0238,0.0312 0.0138,0.003 0.0204,-0.001 0.0309,-0.0181 0.0254,-0.0408 0.0632,-0.0809 0.0998,-0.10574 0.0699,-0.0476 0.14347,-0.058 0.22952,-0.0324 0.0594,0.0176 0.11194,0.0551 0.15176,0.10833 0.0263,0.035 0.042,0.0651 0.057,0.10824 0.038,0.10982 0.0364,0.2359 -0.005,0.35071 -0.0124,0.0345 -0.0212,0.0527 -0.0426,0.088 -0.0758,0.12506 -0.22996,0.26675 -0.4494,0.41298 -0.0627,0.0418 -0.16739,0.10615 -0.17162,0.10557 -5.82e-4,-7e-5 -0.0194,-0.0188 -0.0418,-0.0414 z m -0.49091,-0.91142 c -10e-4,-0.003 -10e-4,-0.003 1.9e-4,-0.002 0.002,2.4e-4 0.002,10e-4 0.003,0.002 -2.1e-4,0.002 -0.002,8e-4 -0.003,-0.001 z m -0.01,-0.041 c 0.002,-5.3e-4 0.004,-2.5e-4 0.005,8e-4 0.002,2.4e-4 5.03e-4,5.3e-4 -0.002,2.6e-4 -0.003,10e-6 -0.005,-8e-4 -0.003,-0.001 z"
       id="path8186"
       inkscape:connector-curvature="0"
       sodipodi:nodetypes="csccssccssccccsscccccccsccsscccccssccsccssccsccssccsccccccc" />
  </g>
</svg>
