<?xml version="1.0" encoding="UTF-8" standalone="no"?>
<!-- Created with Inkscape (http://www.inkscape.org/) -->

<svg
   xmlns:dc="http://purl.org/dc/elements/1.1/"
   xmlns:cc="http://creativecommons.org/ns#"
   xmlns:rdf="http://www.w3.org/1999/02/22-rdf-syntax-ns#"
   xmlns:svg="http://www.w3.org/2000/svg"
   xmlns="http://www.w3.org/2000/svg"
   xmlns:sodipodi="http://sodipodi.sourceforge.net/DTD/sodipodi-0.dtd"
   xmlns:inkscape="http://www.inkscape.org/namespaces/inkscape"
   width="174mm"
   height="190mm"
   viewBox="0 0 174 190"
   version="1.1"
   id="svg981"
   inkscape:version="0.92.5 (2060ec1f9f, 2020-04-08)"
   sodipodi:docname="js.svg">
  <defs
     id="defs975" />
  <sodipodi:namedview
     id="base"
     pagecolor="#ffffff"
     bordercolor="#666666"
     borderopacity="1.0"
     inkscape:pageopacity="0.0"
     inkscape:pageshadow="2"
     inkscape:zoom="0.49497475"
     inkscape:cx="82.303598"
     inkscape:cy="410.7582"
     inkscape:document-units="mm"
     inkscape:current-layer="layer1"
     showgrid="false"
     inkscape:window-width="1294"
     inkscape:window-height="704"
     inkscape:window-x="72"
     inkscape:window-y="27"
     inkscape:window-maximized="1" />
  <metadata
     id="metadata978">
    <rdf:RDF>
      <cc:Work
         rdf:about="">
        <dc:format>image/svg+xml</dc:format>
        <dc:type
           rdf:resource="http://purl.org/dc/dcmitype/StillImage" />
        <dc:title></dc:title>
      </cc:Work>
    </rdf:RDF>
  </metadata>
  <g
     inkscape:label="Camada 1"
     inkscape:groupmode="layer"
     id="layer1"
     transform="translate(0,-107)">
    <path
       style="fill:#fbe996;fill-opacity:1;stroke-width:0.47761616"
       d="m 118.35973,257.2932 c -5.42402,-0.953 -12.4741,-3.58231 -16.80781,-6.26843 -5.721742,-3.54647 -13.113095,-11.60052 -14.627303,-15.93878 -0.183583,-0.52593 2.31114,-2.16708 9.382211,-6.17214 5.934862,-3.36149 9.705272,-5.23682 9.822382,-4.88546 0.42615,1.27845 4.61918,6.39414 6.47499,7.89977 8.35085,6.77514 22.01862,7.271 28.26419,1.02543 4.53589,-4.53589 3.76879,-11.71297 -1.68929,-15.80497 -2.09647,-1.57176 -9.45269,-5.29621 -14.9442,-7.56624 -21.42598,-8.85685 -29.592144,-17.89234 -30.305214,-33.53134 -0.680307,-14.92022 6.926214,-26.07581 21.025534,-30.83564 3.68965,-1.24562 5.37116,-1.52815 10.26822,-1.72531 12.61106,-0.50776 21.92901,2.79425 28.6444,10.15069 3.04665,3.33748 6.33662,8.4428 5.60863,8.70341 -0.25682,0.0919 -4.22814,2.63563 -8.82519,5.65266 -8.195,5.37832 -8.37232,5.46607 -9.07474,4.49114 -3.19577,-4.43558 -4.81872,-6.05291 -7.39699,-7.3715 -2.44938,-1.25265 -3.29195,-1.43138 -6.65889,-1.41253 -3.01352,0.0163 -4.29163,0.25041 -5.85691,1.07022 -6.57453,3.44339 -7.07034,12.79952 -0.91173,17.20498 2.43515,1.74193 7.32393,4.20715 12.94387,6.52708 7.23709,2.98747 16.38872,7.87004 20.35978,10.86234 8.75331,6.59581 12.81794,14.89292 12.81794,26.16508 0,9.4666 -2.541,15.98877 -8.58326,22.03101 -2.95832,2.95834 -4.52961,4.08398 -8.159,5.84496 -6.61442,3.20934 -11.06174,4.17236 -20.2564,4.3863 -5.22378,0.12148 -8.86749,-0.0376 -11.51522,-0.50273 z m -85.760444,-1.20316 c -6.390098,-1.07832 -12.46238,-3.79822 -17.104521,-7.66146 -4.680283,-3.89496 -10.2924288,-12.18649 -8.9489904,-13.22146 1.029918,-0.79344 18.0647424,-9.78417 18.2011944,-9.60633 0.07239,0.0944 0.905958,1.46125 1.852261,3.03737 1.942409,3.23524 5.030683,6.39787 7.513686,7.69457 1.248307,0.65192 2.699767,0.8683 5.731394,0.85451 4.689779,-0.0213 7.290751,-1.05077 9.219873,-3.6491 2.557123,-3.44415 2.463509,-1.75073 2.614329,-47.28841 l 0.140441,-42.38844 h 11.462356 11.462369 l -0.148202,43.58248 -0.148203,43.58248 -1.095122,3.57431 c -4.498486,14.68235 -15.638349,22.07372 -33.030218,21.9157 -3.020923,-0.0275 -6.496116,-0.21923 -7.722634,-0.42622 z"
       id="path962"
       inkscape:connector-curvature="0" />
  </g>
</svg>
